<svg width="1526" height="1000" viewBox="0 0 1526 1000" fill="none" xmlns="http://www.w3.org/2000/svg">
<g filter="url(#filter0_d_3473_738)">
<rect x="1260" y="374" width="258" height="84" rx="12" fill="white" fill-opacity="0.8" shape-rendering="crispEdges"/>
<path d="M1293.72 427.256C1293.08 427.256 1292.57 427.085 1292.21 426.744C1291.85 426.381 1291.67 425.869 1291.67 425.208V422.712H1283.76C1283.1 422.712 1282.57 422.573 1282.16 422.296C1281.78 422.019 1281.59 421.581 1281.59 420.984C1281.59 420.643 1281.67 420.269 1281.84 419.864C1282.04 419.459 1282.37 418.925 1282.84 418.264L1291.6 405.56C1291.9 405.112 1292.23 404.771 1292.6 404.536C1292.96 404.301 1293.37 404.184 1293.84 404.184C1294.4 404.184 1294.86 404.355 1295.22 404.696C1295.58 405.016 1295.76 405.528 1295.76 406.232V419.32H1297.33C1297.95 419.32 1298.41 419.469 1298.71 419.768C1299.03 420.045 1299.19 420.461 1299.19 421.016C1299.19 421.571 1299.03 421.997 1298.71 422.296C1298.41 422.573 1297.95 422.712 1297.33 422.712H1295.76V425.208C1295.76 425.869 1295.58 426.381 1295.22 426.744C1294.86 427.085 1294.36 427.256 1293.72 427.256ZM1291.67 419.32V409.336H1292.6L1285.04 420.408V419.32H1291.67ZM1309.29 427.32C1306.62 427.32 1304.58 426.317 1303.18 424.312C1301.77 422.285 1301.06 419.405 1301.06 415.672C1301.06 413.155 1301.37 411.043 1301.99 409.336C1302.63 407.608 1303.56 406.307 1304.78 405.432C1306.01 404.557 1307.52 404.12 1309.29 404.12C1311.98 404.12 1314.01 405.101 1315.4 407.064C1316.81 409.027 1317.51 411.885 1317.51 415.64C1317.51 418.136 1317.19 420.259 1316.55 422.008C1315.93 423.736 1315.02 425.059 1313.8 425.976C1312.58 426.872 1311.08 427.32 1309.29 427.32ZM1309.29 423.96C1310.74 423.96 1311.8 423.288 1312.49 421.944C1313.19 420.6 1313.54 418.499 1313.54 415.64C1313.54 412.781 1313.19 410.712 1312.49 409.432C1311.8 408.131 1310.74 407.48 1309.29 407.48C1307.86 407.48 1306.79 408.131 1306.09 409.432C1305.38 410.712 1305.03 412.781 1305.03 415.64C1305.03 418.499 1305.38 420.6 1306.09 421.944C1306.79 423.288 1307.86 423.96 1309.29 423.96ZM1329.4 426.744C1329.19 427.128 1328.92 427.373 1328.6 427.48C1328.3 427.608 1328 427.629 1327.68 427.544C1327.38 427.48 1327.12 427.331 1326.91 427.096C1326.69 426.883 1326.57 426.616 1326.52 426.296C1326.48 425.955 1326.57 425.592 1326.78 425.208L1338.59 404.728C1338.8 404.344 1339.06 404.088 1339.36 403.96C1339.68 403.832 1339.98 403.811 1340.28 403.896C1340.58 403.96 1340.84 404.109 1341.05 404.344C1341.26 404.579 1341.39 404.867 1341.44 405.208C1341.5 405.528 1341.42 405.869 1341.21 406.232L1329.4 426.744ZM1325.98 417.912C1324.19 417.912 1322.79 417.293 1321.79 416.056C1320.78 414.819 1320.28 413.133 1320.28 411C1320.28 409.571 1320.51 408.344 1320.96 407.32C1321.4 406.296 1322.05 405.507 1322.91 404.952C1323.76 404.397 1324.78 404.12 1325.98 404.12C1327.77 404.12 1329.17 404.739 1330.17 405.976C1331.17 407.192 1331.68 408.867 1331.68 411C1331.68 412.429 1331.45 413.667 1331 414.712C1330.56 415.736 1329.9 416.525 1329.05 417.08C1328.2 417.635 1327.17 417.912 1325.98 417.912ZM1325.98 415.224C1326.49 415.224 1326.93 415.075 1327.29 414.776C1327.65 414.456 1327.93 413.987 1328.12 413.368C1328.32 412.749 1328.41 411.96 1328.41 411C1328.41 409.571 1328.2 408.515 1327.77 407.832C1327.34 407.149 1326.75 406.808 1325.98 406.808C1325.47 406.808 1325.03 406.957 1324.67 407.256C1324.3 407.555 1324.03 408.013 1323.84 408.632C1323.64 409.251 1323.55 410.04 1323.55 411C1323.55 412.451 1323.76 413.517 1324.19 414.2C1324.61 414.883 1325.21 415.224 1325.98 415.224ZM1342.04 427.32C1340.25 427.32 1338.85 426.701 1337.85 425.464C1336.85 424.227 1336.35 422.541 1336.35 420.408C1336.35 418.979 1336.57 417.752 1337.02 416.728C1337.47 415.704 1338.12 414.915 1338.97 414.36C1339.82 413.805 1340.85 413.528 1342.04 413.528C1343.84 413.528 1345.23 414.147 1346.24 415.384C1347.24 416.6 1347.74 418.275 1347.74 420.408C1347.74 421.837 1347.52 423.075 1347.07 424.12C1346.62 425.144 1345.97 425.933 1345.12 426.488C1344.26 427.043 1343.24 427.32 1342.04 427.32ZM1342.04 424.632C1342.56 424.632 1342.99 424.483 1343.36 424.184C1343.72 423.885 1344 423.427 1344.19 422.808C1344.38 422.168 1344.48 421.368 1344.48 420.408C1344.48 418.979 1344.26 417.923 1343.84 417.24C1343.41 416.557 1342.81 416.216 1342.04 416.216C1341.53 416.216 1341.09 416.365 1340.73 416.664C1340.37 416.963 1340.09 417.421 1339.9 418.04C1339.71 418.659 1339.61 419.448 1339.61 420.408C1339.61 421.859 1339.82 422.925 1340.25 423.608C1340.68 424.291 1341.28 424.632 1342.04 424.632ZM1361.91 427.224C1361.48 427.224 1361.15 427.107 1360.92 426.872C1360.7 426.616 1360.6 426.275 1360.6 425.848V405.784C1360.6 405.336 1360.71 405.005 1360.95 404.792C1361.18 404.557 1361.51 404.44 1361.94 404.44H1369.52C1371.94 404.44 1373.79 405.037 1375.09 406.232C1376.39 407.405 1377.04 409.069 1377.04 411.224C1377.04 413.357 1376.39 415.021 1375.09 416.216C1373.79 417.411 1371.94 418.008 1369.52 418.008H1363.22V425.848C1363.22 426.275 1363.11 426.616 1362.9 426.872C1362.69 427.107 1362.36 427.224 1361.91 427.224ZM1363.22 415.8H1369.2C1370.93 415.8 1372.23 415.416 1373.11 414.648C1374 413.859 1374.45 412.717 1374.45 411.224C1374.45 409.709 1374 408.568 1373.11 407.8C1372.23 407.011 1370.93 406.616 1369.2 406.616H1363.22V415.8ZM1382.16 427.224C1381.73 427.224 1381.4 427.107 1381.17 426.872C1380.95 426.616 1380.85 426.275 1380.85 425.848V405.784C1380.85 405.336 1380.96 405.005 1381.2 404.792C1381.43 404.557 1381.76 404.44 1382.19 404.44H1389.77C1392.19 404.44 1394.04 405.005 1395.34 406.136C1396.64 407.267 1397.29 408.877 1397.29 410.968C1397.29 412.291 1397 413.443 1396.4 414.424C1395.82 415.384 1394.97 416.12 1393.84 416.632C1392.71 417.123 1391.35 417.368 1389.77 417.368L1390.09 416.952H1390.73C1391.57 416.952 1392.29 417.165 1392.91 417.592C1393.53 418.019 1394.09 418.701 1394.61 419.64L1397.68 425.368C1397.85 425.667 1397.92 425.965 1397.9 426.264C1397.9 426.541 1397.81 426.776 1397.61 426.968C1397.42 427.139 1397.15 427.224 1396.78 427.224C1396.42 427.224 1396.12 427.139 1395.89 426.968C1395.65 426.797 1395.45 426.552 1395.28 426.232L1391.79 419.768C1391.3 418.851 1390.73 418.243 1390.09 417.944C1389.45 417.624 1388.61 417.464 1387.57 417.464H1383.47V425.848C1383.47 426.275 1383.36 426.616 1383.15 426.872C1382.94 427.107 1382.61 427.224 1382.16 427.224ZM1383.47 415.384H1389.39C1391.14 415.384 1392.46 415.021 1393.36 414.296C1394.25 413.549 1394.7 412.44 1394.7 410.968C1394.7 409.539 1394.25 408.461 1393.36 407.736C1392.46 406.989 1391.14 406.616 1389.39 406.616H1383.47V415.384ZM1403.69 427C1403.22 427 1402.86 426.883 1402.6 426.648C1402.37 426.392 1402.25 426.029 1402.25 425.56V405.88C1402.25 405.411 1402.37 405.059 1402.6 404.824C1402.86 404.568 1403.22 404.44 1403.69 404.44H1415.6C1415.96 404.44 1416.24 404.536 1416.43 404.728C1416.62 404.92 1416.72 405.187 1416.72 405.528C1416.72 405.891 1416.62 406.168 1416.43 406.36C1416.24 406.552 1415.96 406.648 1415.6 406.648H1404.81V414.456H1414.92C1415.29 414.456 1415.56 414.552 1415.76 414.744C1415.95 414.915 1416.04 415.181 1416.04 415.544C1416.04 415.907 1415.95 416.184 1415.76 416.376C1415.56 416.568 1415.29 416.664 1414.92 416.664H1404.81V424.792H1415.6C1415.96 424.792 1416.24 424.888 1416.43 425.08C1416.62 425.272 1416.72 425.539 1416.72 425.88C1416.72 426.243 1416.62 426.52 1416.43 426.712C1416.24 426.904 1415.96 427 1415.6 427H1403.69ZM1427.89 427.288C1426.89 427.288 1425.91 427.203 1424.95 427.032C1423.99 426.861 1423.09 426.616 1422.26 426.296C1421.45 425.976 1420.71 425.571 1420.05 425.08C1419.8 424.888 1419.62 424.675 1419.51 424.44C1419.42 424.184 1419.4 423.939 1419.44 423.704C1419.51 423.448 1419.62 423.235 1419.76 423.064C1419.94 422.893 1420.14 422.797 1420.37 422.776C1420.61 422.755 1420.86 422.829 1421.14 423C1422.1 423.683 1423.12 424.184 1424.21 424.504C1425.3 424.803 1426.53 424.952 1427.89 424.952C1429.81 424.952 1431.23 424.6 1432.15 423.896C1433.09 423.171 1433.56 422.221 1433.56 421.048C1433.56 420.088 1433.22 419.341 1432.53 418.808C1431.87 418.253 1430.75 417.816 1429.17 417.496L1425.84 416.824C1423.84 416.397 1422.34 415.704 1421.33 414.744C1420.35 413.763 1419.86 412.461 1419.86 410.84C1419.86 409.837 1420.06 408.931 1420.47 408.12C1420.87 407.288 1421.44 406.584 1422.16 406.008C1422.89 405.411 1423.75 404.952 1424.76 404.632C1425.76 404.312 1426.87 404.152 1428.08 404.152C1429.43 404.152 1430.68 404.344 1431.83 404.728C1433 405.091 1434.06 405.645 1435 406.392C1435.23 406.584 1435.39 406.808 1435.48 407.064C1435.56 407.299 1435.57 407.533 1435.51 407.768C1435.44 407.981 1435.33 408.163 1435.16 408.312C1435.01 408.461 1434.8 408.547 1434.55 408.568C1434.31 408.589 1434.05 408.504 1433.75 408.312C1432.9 407.672 1432.01 407.213 1431.09 406.936C1430.18 406.637 1429.16 406.488 1428.05 406.488C1426.92 406.488 1425.94 406.659 1425.11 407C1424.3 407.341 1423.66 407.843 1423.19 408.504C1422.74 409.144 1422.52 409.891 1422.52 410.744C1422.52 411.768 1422.83 412.579 1423.44 413.176C1424.08 413.773 1425.12 414.211 1426.55 414.488L1429.88 415.192C1432.03 415.64 1433.62 416.323 1434.64 417.24C1435.69 418.136 1436.21 419.363 1436.21 420.92C1436.21 421.859 1436.02 422.723 1435.64 423.512C1435.25 424.301 1434.7 424.984 1433.97 425.56C1433.25 426.115 1432.37 426.541 1431.35 426.84C1430.32 427.139 1429.17 427.288 1427.89 427.288ZM1439.74 427.224C1439.4 427.224 1439.12 427.149 1438.91 427C1438.72 426.829 1438.6 426.616 1438.56 426.36C1438.54 426.083 1438.6 425.773 1438.75 425.432L1447.55 405.4C1447.74 404.973 1447.97 404.675 1448.22 404.504C1448.5 404.312 1448.8 404.216 1449.12 404.216C1449.44 404.216 1449.73 404.312 1449.98 404.504C1450.26 404.675 1450.48 404.973 1450.65 405.4L1459.49 425.432C1459.66 425.773 1459.72 426.083 1459.68 426.36C1459.66 426.637 1459.55 426.851 1459.36 427C1459.17 427.149 1458.9 427.224 1458.56 427.224C1458.17 427.224 1457.86 427.128 1457.63 426.936C1457.39 426.723 1457.2 426.424 1457.05 426.04L1454.69 420.568L1455.97 421.24H1442.21L1443.52 420.568L1441.18 426.04C1440.99 426.445 1440.79 426.744 1440.57 426.936C1440.36 427.128 1440.08 427.224 1439.74 427.224ZM1449.09 407.512L1443.93 419.64L1443.17 419.032H1455.01L1454.3 419.64L1449.15 407.512H1449.09ZM1464.88 427C1464.45 427 1464.12 426.883 1463.89 426.648C1463.65 426.392 1463.53 426.051 1463.53 425.624V405.656C1463.53 405.208 1463.64 404.867 1463.85 404.632C1464.09 404.397 1464.42 404.28 1464.85 404.28C1465.27 404.28 1465.59 404.397 1465.81 404.632C1466.04 404.867 1466.16 405.208 1466.16 405.656V424.696H1476.65C1477.04 424.696 1477.34 424.803 1477.55 425.016C1477.76 425.208 1477.87 425.485 1477.87 425.848C1477.87 426.211 1477.76 426.499 1477.55 426.712C1477.34 426.904 1477.04 427 1476.65 427H1464.88ZM1482.35 427C1481.88 427 1481.52 426.883 1481.26 426.648C1481.03 426.392 1480.91 426.029 1480.91 425.56V405.88C1480.91 405.411 1481.03 405.059 1481.26 404.824C1481.52 404.568 1481.88 404.44 1482.35 404.44H1494.25C1494.62 404.44 1494.89 404.536 1495.09 404.728C1495.28 404.92 1495.37 405.187 1495.37 405.528C1495.37 405.891 1495.28 406.168 1495.09 406.36C1494.89 406.552 1494.62 406.648 1494.25 406.648H1483.47V414.456H1493.58C1493.94 414.456 1494.22 414.552 1494.41 414.744C1494.61 414.915 1494.7 415.181 1494.7 415.544C1494.7 415.907 1494.61 416.184 1494.41 416.376C1494.22 416.568 1493.94 416.664 1493.58 416.664H1483.47V424.792H1494.25C1494.62 424.792 1494.89 424.888 1495.09 425.08C1495.28 425.272 1495.37 425.539 1495.37 425.88C1495.37 426.243 1495.28 426.52 1495.09 426.712C1494.89 426.904 1494.62 427 1494.25 427H1482.35Z" fill="black"/>
</g>
<g filter="url(#filter1_d_3473_738)">
<rect x="878" y="900" width="304" height="84" rx="12" fill="white" fill-opacity="0.8" shape-rendering="crispEdges"/>
<path d="M902.256 953C901.573 953 901.072 952.851 900.752 952.552C900.453 952.232 900.304 951.773 900.304 951.176C900.304 950.813 900.4 950.461 900.592 950.12C900.784 949.779 901.061 949.416 901.424 949.032L907.856 942.184C908.837 941.16 909.541 940.232 909.968 939.4C910.395 938.547 910.608 937.693 910.608 936.84C910.608 935.773 910.267 934.963 909.584 934.408C908.923 933.853 907.952 933.576 906.672 933.576C905.947 933.576 905.221 933.683 904.496 933.896C903.771 934.088 903.035 934.429 902.288 934.92C901.904 935.176 901.541 935.283 901.2 935.24C900.88 935.197 900.592 935.059 900.336 934.824C900.101 934.589 899.941 934.301 899.856 933.96C899.771 933.619 899.781 933.277 899.888 932.936C900.016 932.573 900.272 932.264 900.656 932.008C901.573 931.389 902.597 930.92 903.728 930.6C904.88 930.28 906.032 930.12 907.184 930.12C908.805 930.12 910.171 930.365 911.28 930.856C912.389 931.347 913.232 932.061 913.808 933C914.384 933.939 914.672 935.08 914.672 936.424C914.672 937.32 914.523 938.195 914.224 939.048C913.947 939.901 913.509 940.765 912.912 941.64C912.336 942.515 911.579 943.443 910.64 944.424L904.624 950.696V949.608H914.032C914.608 949.608 915.045 949.747 915.344 950.024C915.643 950.301 915.792 950.717 915.792 951.272C915.792 951.827 915.643 952.253 915.344 952.552C915.045 952.851 914.608 953 914.032 953H902.256ZM930.404 953.256C929.764 953.256 929.262 953.085 928.9 952.744C928.537 952.381 928.356 951.869 928.356 951.208V948.712H920.452C919.79 948.712 919.257 948.573 918.852 948.296C918.468 948.019 918.276 947.581 918.276 946.984C918.276 946.643 918.361 946.269 918.532 945.864C918.724 945.459 919.054 944.925 919.524 944.264L928.292 931.56C928.59 931.112 928.921 930.771 929.284 930.536C929.646 930.301 930.062 930.184 930.532 930.184C931.086 930.184 931.545 930.355 931.908 930.696C932.27 931.016 932.452 931.528 932.452 932.232V945.32H934.02C934.638 945.32 935.097 945.469 935.396 945.768C935.716 946.045 935.876 946.461 935.876 947.016C935.876 947.571 935.716 947.997 935.396 948.296C935.097 948.573 934.638 948.712 934.02 948.712H932.452V951.208C932.452 951.869 932.27 952.381 931.908 952.744C931.545 953.085 931.044 953.256 930.404 953.256ZM928.356 945.32V935.336H929.284L921.732 946.408V945.32H928.356ZM946.903 952.744C946.69 953.128 946.423 953.373 946.103 953.48C945.804 953.608 945.495 953.629 945.175 953.544C944.876 953.48 944.62 953.331 944.407 953.096C944.194 952.883 944.066 952.616 944.023 952.296C943.98 951.955 944.066 951.592 944.279 951.208L956.087 930.728C956.3 930.344 956.556 930.088 956.855 929.96C957.175 929.832 957.484 929.811 957.783 929.896C958.082 929.96 958.338 930.109 958.551 930.344C958.764 930.579 958.892 930.867 958.935 931.208C958.999 931.528 958.924 931.869 958.711 932.232L946.903 952.744ZM943.479 943.912C941.687 943.912 940.29 943.293 939.287 942.056C938.284 940.819 937.783 939.133 937.783 937C937.783 935.571 938.007 934.344 938.455 933.32C938.903 932.296 939.554 931.507 940.407 930.952C941.26 930.397 942.284 930.12 943.479 930.12C945.271 930.12 946.668 930.739 947.671 931.976C948.674 933.192 949.175 934.867 949.175 937C949.175 938.429 948.951 939.667 948.503 940.712C948.055 941.736 947.404 942.525 946.551 943.08C945.698 943.635 944.674 943.912 943.479 943.912ZM943.479 941.224C943.991 941.224 944.428 941.075 944.791 940.776C945.154 940.456 945.431 939.987 945.623 939.368C945.815 938.749 945.911 937.96 945.911 937C945.911 935.571 945.698 934.515 945.271 933.832C944.844 933.149 944.247 932.808 943.479 932.808C942.967 932.808 942.53 932.957 942.167 933.256C941.804 933.555 941.527 934.013 941.335 934.632C941.143 935.251 941.047 936.04 941.047 937C941.047 938.451 941.26 939.517 941.687 940.2C942.114 940.883 942.711 941.224 943.479 941.224ZM959.543 953.32C957.751 953.32 956.354 952.701 955.351 951.464C954.348 950.227 953.847 948.541 953.847 946.408C953.847 944.979 954.071 943.752 954.519 942.728C954.967 941.704 955.618 940.915 956.471 940.36C957.324 939.805 958.348 939.528 959.543 939.528C961.335 939.528 962.732 940.147 963.735 941.384C964.738 942.6 965.239 944.275 965.239 946.408C965.239 947.837 965.015 949.075 964.567 950.12C964.119 951.144 963.468 951.933 962.615 952.488C961.762 953.043 960.738 953.32 959.543 953.32ZM959.543 950.632C960.055 950.632 960.492 950.483 960.855 950.184C961.218 949.885 961.495 949.427 961.687 948.808C961.879 948.168 961.975 947.368 961.975 946.408C961.975 944.979 961.762 943.923 961.335 943.24C960.908 942.557 960.311 942.216 959.543 942.216C959.031 942.216 958.594 942.365 958.231 942.664C957.868 942.963 957.591 943.421 957.399 944.04C957.207 944.659 957.111 945.448 957.111 946.408C957.111 947.859 957.324 948.925 957.751 949.608C958.178 950.291 958.775 950.632 959.543 950.632ZM979.536 953C979.067 953 978.705 952.883 978.449 952.648C978.214 952.392 978.097 952.029 978.097 951.56V931.88C978.097 931.411 978.214 931.059 978.449 930.824C978.705 930.568 979.067 930.44 979.536 930.44H991.441C991.803 930.44 992.081 930.536 992.273 930.728C992.465 930.92 992.561 931.187 992.561 931.528C992.561 931.891 992.465 932.168 992.273 932.36C992.081 932.552 991.803 932.648 991.441 932.648H980.657V940.456H990.769C991.131 940.456 991.409 940.552 991.601 940.744C991.793 940.915 991.889 941.181 991.889 941.544C991.889 941.907 991.793 942.184 991.601 942.376C991.409 942.568 991.131 942.664 990.769 942.664H980.657V950.792H991.441C991.803 950.792 992.081 950.888 992.273 951.08C992.465 951.272 992.561 951.539 992.561 951.88C992.561 952.243 992.465 952.52 992.273 952.712C992.081 952.904 991.803 953 991.441 953H979.536ZM1006.42 953.288C1004.2 953.288 1002.3 952.819 1000.72 951.88C999.144 950.941 997.928 949.608 997.075 947.88C996.243 946.152 995.827 944.093 995.827 941.704C995.827 939.912 996.062 938.312 996.531 936.904C997.022 935.475 997.715 934.269 998.611 933.288C999.528 932.285 1000.65 931.517 1001.97 930.984C1003.29 930.429 1004.78 930.152 1006.42 930.152C1007.74 930.152 1009 930.344 1010.2 930.728C1011.39 931.091 1012.42 931.635 1013.3 932.36C1013.58 932.573 1013.76 932.819 1013.84 933.096C1013.95 933.352 1013.96 933.608 1013.88 933.864C1013.81 934.099 1013.68 934.301 1013.49 934.472C1013.32 934.621 1013.11 934.696 1012.85 934.696C1012.6 934.696 1012.31 934.589 1011.99 934.376C1011.22 933.757 1010.38 933.299 1009.46 933C1008.54 932.701 1007.55 932.552 1006.48 932.552C1004.8 932.552 1003.37 932.915 1002.2 933.64C1001.02 934.344 1000.14 935.379 999.539 936.744C998.942 938.109 998.643 939.763 998.643 941.704C998.643 943.645 998.942 945.309 999.539 946.696C1000.14 948.061 1001.02 949.107 1002.2 949.832C1003.37 950.536 1004.8 950.888 1006.48 950.888C1007.53 950.888 1008.52 950.739 1009.46 950.44C1010.4 950.12 1011.26 949.651 1012.05 949.032C1012.37 948.819 1012.66 948.723 1012.92 948.744C1013.17 948.744 1013.38 948.819 1013.56 948.968C1013.73 949.117 1013.84 949.309 1013.91 949.544C1013.99 949.779 1013.99 950.024 1013.91 950.28C1013.84 950.536 1013.68 950.76 1013.43 950.952C1012.53 951.72 1011.48 952.307 1010.26 952.712C1009.06 953.096 1007.78 953.288 1006.42 953.288ZM1027.01 953.288C1024.92 953.288 1023.09 952.819 1021.53 951.88C1020 950.92 1018.8 949.576 1017.95 947.848C1017.12 946.12 1016.7 944.072 1016.7 941.704C1016.7 939.912 1016.94 938.312 1017.41 936.904C1017.9 935.475 1018.59 934.269 1019.49 933.288C1020.38 932.285 1021.46 931.517 1022.72 930.984C1024 930.429 1025.43 930.152 1027.01 930.152C1029.14 930.152 1030.97 930.621 1032.51 931.56C1034.07 932.499 1035.26 933.832 1036.09 935.56C1036.95 937.267 1037.37 939.304 1037.37 941.672C1037.37 943.464 1037.13 945.075 1036.64 946.504C1036.15 947.933 1035.45 949.149 1034.56 950.152C1033.66 951.155 1032.57 951.933 1031.29 952.488C1030.04 953.021 1028.61 953.288 1027.01 953.288ZM1027.01 950.952C1028.63 950.952 1029.99 950.589 1031.1 949.864C1032.23 949.139 1033.1 948.083 1033.69 946.696C1034.29 945.309 1034.59 943.645 1034.59 941.704C1034.59 938.781 1033.93 936.52 1032.61 934.92C1031.3 933.299 1029.44 932.488 1027.01 932.488C1025.43 932.488 1024.07 932.851 1022.94 933.576C1021.83 934.301 1020.98 935.357 1020.38 936.744C1019.78 938.109 1019.49 939.763 1019.49 941.704C1019.49 944.605 1020.15 946.877 1021.47 948.52C1022.79 950.141 1024.64 950.952 1027.01 950.952ZM1049.36 953.288C1048.36 953.288 1047.38 953.203 1046.42 953.032C1045.46 952.861 1044.56 952.616 1043.73 952.296C1042.92 951.976 1042.18 951.571 1041.52 951.08C1041.27 950.888 1041.08 950.675 1040.98 950.44C1040.89 950.184 1040.87 949.939 1040.91 949.704C1040.98 949.448 1041.08 949.235 1041.23 949.064C1041.4 948.893 1041.61 948.797 1041.84 948.776C1042.08 948.755 1042.33 948.829 1042.61 949C1043.57 949.683 1044.59 950.184 1045.68 950.504C1046.77 950.803 1048 950.952 1049.36 950.952C1051.28 950.952 1052.7 950.6 1053.62 949.896C1054.56 949.171 1055.03 948.221 1055.03 947.048C1055.03 946.088 1054.68 945.341 1054 944.808C1053.34 944.253 1052.22 943.816 1050.64 943.496L1047.31 942.824C1045.31 942.397 1043.8 941.704 1042.8 940.744C1041.82 939.763 1041.33 938.461 1041.33 936.84C1041.33 935.837 1041.53 934.931 1041.94 934.12C1042.34 933.288 1042.91 932.584 1043.63 932.008C1044.36 931.411 1045.22 930.952 1046.23 930.632C1047.23 930.312 1048.34 930.152 1049.55 930.152C1050.9 930.152 1052.15 930.344 1053.3 930.728C1054.47 931.091 1055.53 931.645 1056.47 932.392C1056.7 932.584 1056.86 932.808 1056.95 933.064C1057.03 933.299 1057.04 933.533 1056.98 933.768C1056.91 933.981 1056.8 934.163 1056.63 934.312C1056.48 934.461 1056.27 934.547 1056.02 934.568C1055.78 934.589 1055.52 934.504 1055.22 934.312C1054.36 933.672 1053.48 933.213 1052.56 932.936C1051.64 932.637 1050.63 932.488 1049.52 932.488C1048.39 932.488 1047.41 932.659 1046.58 933C1045.77 933.341 1045.13 933.843 1044.66 934.504C1044.21 935.144 1043.99 935.891 1043.99 936.744C1043.99 937.768 1044.29 938.579 1044.91 939.176C1045.55 939.773 1046.59 940.211 1048.02 940.488L1051.35 941.192C1053.5 941.64 1055.09 942.323 1056.11 943.24C1057.16 944.136 1057.68 945.363 1057.68 946.92C1057.68 947.859 1057.49 948.723 1057.11 949.512C1056.72 950.301 1056.17 950.984 1055.44 951.56C1054.72 952.115 1053.84 952.541 1052.82 952.84C1051.79 953.139 1050.64 953.288 1049.36 953.288ZM1068 953.224C1067.58 953.224 1067.25 953.107 1067.01 952.872C1066.8 952.616 1066.69 952.264 1066.69 951.816V941.32L1067.27 943.144L1059.24 932.072C1059.04 931.795 1058.95 931.517 1058.95 931.24C1058.97 930.941 1059.09 930.696 1059.3 930.504C1059.51 930.312 1059.79 930.216 1060.13 930.216C1060.43 930.216 1060.7 930.291 1060.93 930.44C1061.17 930.568 1061.38 930.781 1061.57 931.08L1068.39 940.488H1067.72L1074.53 931.08C1074.77 930.76 1074.99 930.536 1075.2 930.408C1075.42 930.28 1075.67 930.216 1075.97 930.216C1076.31 930.216 1076.58 930.312 1076.77 930.504C1076.96 930.675 1077.06 930.909 1077.06 931.208C1077.08 931.485 1076.99 931.784 1076.77 932.104L1068.77 943.144L1069.32 941.32V951.816C1069.32 952.755 1068.88 953.224 1068 953.224ZM1086.83 953.288C1085.83 953.288 1084.85 953.203 1083.89 953.032C1082.93 952.861 1082.03 952.616 1081.2 952.296C1080.39 951.976 1079.65 951.571 1078.99 951.08C1078.73 950.888 1078.55 950.675 1078.45 950.44C1078.36 950.184 1078.34 949.939 1078.38 949.704C1078.45 949.448 1078.55 949.235 1078.7 949.064C1078.87 948.893 1079.08 948.797 1079.31 948.776C1079.54 948.755 1079.8 948.829 1080.08 949C1081.04 949.683 1082.06 950.184 1083.15 950.504C1084.24 950.803 1085.46 950.952 1086.83 950.952C1088.75 950.952 1090.17 950.6 1091.09 949.896C1092.02 949.171 1092.49 948.221 1092.49 947.048C1092.49 946.088 1092.15 945.341 1091.47 944.808C1090.81 944.253 1089.69 943.816 1088.11 943.496L1084.78 942.824C1082.78 942.397 1081.27 941.704 1080.27 940.744C1079.29 939.763 1078.8 938.461 1078.8 936.84C1078.8 935.837 1079 934.931 1079.41 934.12C1079.81 933.288 1080.38 932.584 1081.1 932.008C1081.83 931.411 1082.69 930.952 1083.69 930.632C1084.7 930.312 1085.81 930.152 1087.02 930.152C1088.37 930.152 1089.61 930.344 1090.77 930.728C1091.94 931.091 1093 931.645 1093.93 932.392C1094.17 932.584 1094.33 932.808 1094.41 933.064C1094.5 933.299 1094.51 933.533 1094.45 933.768C1094.38 933.981 1094.26 934.163 1094.09 934.312C1093.94 934.461 1093.74 934.547 1093.49 934.568C1093.25 934.589 1092.98 934.504 1092.69 934.312C1091.83 933.672 1090.95 933.213 1090.03 932.936C1089.11 932.637 1088.1 932.488 1086.99 932.488C1085.86 932.488 1084.88 932.659 1084.05 933C1083.24 933.341 1082.6 933.843 1082.13 934.504C1081.68 935.144 1081.45 935.891 1081.45 936.744C1081.45 937.768 1081.76 938.579 1082.38 939.176C1083.02 939.773 1084.06 940.211 1085.49 940.488L1088.81 941.192C1090.97 941.64 1092.56 942.323 1093.58 943.24C1094.63 944.136 1095.15 945.363 1095.15 946.92C1095.15 947.859 1094.96 948.723 1094.57 949.512C1094.19 950.301 1093.64 950.984 1092.91 951.56C1092.18 952.115 1091.31 952.541 1090.29 952.84C1089.26 953.139 1088.11 953.288 1086.83 953.288ZM1105.6 953.224C1105.2 953.224 1104.88 953.107 1104.64 952.872C1104.41 952.616 1104.29 952.275 1104.29 951.848V932.712H1097.09C1096.7 932.712 1096.41 932.605 1096.19 932.392C1095.98 932.179 1095.87 931.901 1095.87 931.56C1095.87 931.197 1095.98 930.92 1096.19 930.728C1096.41 930.536 1096.7 930.44 1097.09 930.44H1114.14C1114.53 930.44 1114.83 930.536 1115.04 930.728C1115.25 930.92 1115.36 931.197 1115.36 931.56C1115.36 931.923 1115.25 932.211 1115.04 932.424C1114.83 932.616 1114.53 932.712 1114.14 932.712H1106.94V951.848C1106.94 952.275 1106.83 952.616 1106.59 952.872C1106.38 953.107 1106.05 953.224 1105.6 953.224ZM1119.44 953C1118.97 953 1118.61 952.883 1118.35 952.648C1118.12 952.392 1118 952.029 1118 951.56V931.88C1118 931.411 1118.12 931.059 1118.35 930.824C1118.61 930.568 1118.97 930.44 1119.44 930.44H1131.35C1131.71 930.44 1131.99 930.536 1132.18 930.728C1132.37 930.92 1132.47 931.187 1132.47 931.528C1132.47 931.891 1132.37 932.168 1132.18 932.36C1131.99 932.552 1131.71 932.648 1131.35 932.648H1120.56V940.456H1130.67C1131.04 940.456 1131.31 940.552 1131.51 940.744C1131.7 940.915 1131.79 941.181 1131.79 941.544C1131.79 941.907 1131.7 942.184 1131.51 942.376C1131.31 942.568 1131.04 942.664 1130.67 942.664H1120.56V950.792H1131.35C1131.71 950.792 1131.99 950.888 1132.18 951.08C1132.37 951.272 1132.47 951.539 1132.47 951.88C1132.47 952.243 1132.37 952.52 1132.18 952.712C1131.99 952.904 1131.71 953 1131.35 953H1119.44ZM1137.94 953.224C1137.56 953.224 1137.26 953.117 1137.04 952.904C1136.83 952.669 1136.72 952.349 1136.72 951.944V931.496C1136.72 931.069 1136.83 930.749 1137.04 930.536C1137.26 930.323 1137.56 930.216 1137.94 930.216C1138.28 930.216 1138.55 930.291 1138.74 930.44C1138.95 930.568 1139.14 930.792 1139.32 931.112L1148.08 947.624H1147.12L1155.86 931.112C1156.03 930.792 1156.21 930.568 1156.4 930.44C1156.6 930.291 1156.87 930.216 1157.24 930.216C1157.6 930.216 1157.89 930.323 1158.1 930.536C1158.31 930.749 1158.42 931.069 1158.42 931.496V951.944C1158.42 952.349 1158.31 952.669 1158.1 952.904C1157.91 953.117 1157.61 953.224 1157.2 953.224C1156.82 953.224 1156.52 953.117 1156.31 952.904C1156.09 952.669 1155.99 952.349 1155.99 951.944V933.96H1156.76L1148.76 948.968C1148.61 949.245 1148.45 949.448 1148.28 949.576C1148.13 949.683 1147.9 949.736 1147.6 949.736C1147.3 949.736 1147.07 949.672 1146.9 949.544C1146.73 949.416 1146.58 949.224 1146.45 948.968L1138.36 933.928H1139.12V951.944C1139.12 952.349 1139.02 952.669 1138.8 952.904C1138.61 953.117 1138.32 953.224 1137.94 953.224Z" fill="black"/>
</g>
<g filter="url(#filter2_d_3473_738)">
<rect x="8" y="716" width="448" height="84" rx="12" fill="white" fill-opacity="0.8" shape-rendering="crispEdges"/>
<path d="M32.992 769C32.4373 769 32 768.851 31.68 768.552C31.3813 768.232 31.232 767.805 31.232 767.272C31.232 766.717 31.3813 766.301 31.68 766.024C32 765.747 32.4373 765.608 32.992 765.608H36.576V749.896H38.56L33.856 752.744C33.4507 752.979 33.0667 753.075 32.704 753.032C32.3627 752.968 32.064 752.819 31.808 752.584C31.5733 752.328 31.4133 752.029 31.328 751.688C31.2427 751.347 31.264 751.005 31.392 750.664C31.5413 750.301 31.8187 750.003 32.224 749.768L36.64 747.112C37.0667 746.856 37.4933 746.643 37.92 746.472C38.3467 746.28 38.7413 746.184 39.104 746.184C39.552 746.184 39.9253 746.312 40.224 746.568C40.5227 746.803 40.672 747.197 40.672 747.752V765.608H43.936C44.4907 765.608 44.9173 765.747 45.216 766.024C45.536 766.301 45.696 766.717 45.696 767.272C45.696 767.827 45.536 768.253 45.216 768.552C44.9173 768.851 44.4907 769 43.936 769H32.992ZM51.4435 769C50.7608 769 50.2595 768.851 49.9395 768.552C49.6408 768.232 49.4915 767.773 49.4915 767.176C49.4915 766.813 49.5875 766.461 49.7795 766.12C49.9715 765.779 50.2488 765.416 50.6115 765.032L57.0435 758.184C58.0248 757.16 58.7288 756.232 59.1555 755.4C59.5822 754.547 59.7955 753.693 59.7955 752.84C59.7955 751.773 59.4542 750.963 58.7715 750.408C58.1102 749.853 57.1395 749.576 55.8595 749.576C55.1342 749.576 54.4088 749.683 53.6835 749.896C52.9582 750.088 52.2222 750.429 51.4755 750.92C51.0915 751.176 50.7288 751.283 50.3875 751.24C50.0675 751.197 49.7795 751.059 49.5235 750.824C49.2888 750.589 49.1288 750.301 49.0435 749.96C48.9582 749.619 48.9688 749.277 49.0755 748.936C49.2035 748.573 49.4595 748.264 49.8435 748.008C50.7608 747.389 51.7848 746.92 52.9155 746.6C54.0675 746.28 55.2195 746.12 56.3715 746.12C57.9928 746.12 59.3582 746.365 60.4675 746.856C61.5768 747.347 62.4195 748.061 62.9955 749C63.5715 749.939 63.8595 751.08 63.8595 752.424C63.8595 753.32 63.7102 754.195 63.4115 755.048C63.1342 755.901 62.6968 756.765 62.0995 757.64C61.5235 758.515 60.7662 759.443 59.8275 760.424L53.8115 766.696V765.608H63.2195C63.7955 765.608 64.2328 765.747 64.5315 766.024C64.8302 766.301 64.9795 766.717 64.9795 767.272C64.9795 767.827 64.8302 768.253 64.5315 768.552C64.2328 768.851 63.7955 769 63.2195 769H51.4435ZM76.903 768.744C76.6897 769.128 76.423 769.373 76.103 769.48C75.8043 769.608 75.495 769.629 75.175 769.544C74.8763 769.48 74.6203 769.331 74.407 769.096C74.1937 768.883 74.0657 768.616 74.023 768.296C73.9803 767.955 74.0657 767.592 74.279 767.208L86.087 746.728C86.3003 746.344 86.5563 746.088 86.855 745.96C87.175 745.832 87.4843 745.811 87.783 745.896C88.0817 745.96 88.3377 746.109 88.551 746.344C88.7643 746.579 88.8923 746.867 88.935 747.208C88.999 747.528 88.9243 747.869 88.711 748.232L76.903 768.744ZM73.479 759.912C71.687 759.912 70.2897 759.293 69.287 758.056C68.2843 756.819 67.783 755.133 67.783 753C67.783 751.571 68.007 750.344 68.455 749.32C68.903 748.296 69.5537 747.507 70.407 746.952C71.2603 746.397 72.2843 746.12 73.479 746.12C75.271 746.12 76.6683 746.739 77.671 747.976C78.6737 749.192 79.175 750.867 79.175 753C79.175 754.429 78.951 755.667 78.503 756.712C78.055 757.736 77.4043 758.525 76.551 759.08C75.6977 759.635 74.6737 759.912 73.479 759.912ZM73.479 757.224C73.991 757.224 74.4283 757.075 74.791 756.776C75.1537 756.456 75.431 755.987 75.623 755.368C75.815 754.749 75.911 753.96 75.911 753C75.911 751.571 75.6977 750.515 75.271 749.832C74.8443 749.149 74.247 748.808 73.479 748.808C72.967 748.808 72.5297 748.957 72.167 749.256C71.8043 749.555 71.527 750.013 71.335 750.632C71.143 751.251 71.047 752.04 71.047 753C71.047 754.451 71.2603 755.517 71.687 756.2C72.1137 756.883 72.711 757.224 73.479 757.224ZM89.543 769.32C87.751 769.32 86.3537 768.701 85.351 767.464C84.3483 766.227 83.847 764.541 83.847 762.408C83.847 760.979 84.071 759.752 84.519 758.728C84.967 757.704 85.6177 756.915 86.471 756.36C87.3243 755.805 88.3483 755.528 89.543 755.528C91.335 755.528 92.7323 756.147 93.735 757.384C94.7377 758.6 95.239 760.275 95.239 762.408C95.239 763.837 95.015 765.075 94.567 766.12C94.119 767.144 93.4683 767.933 92.615 768.488C91.7617 769.043 90.7377 769.32 89.543 769.32ZM89.543 766.632C90.055 766.632 90.4923 766.483 90.855 766.184C91.2177 765.885 91.495 765.427 91.687 764.808C91.879 764.168 91.975 763.368 91.975 762.408C91.975 760.979 91.7617 759.923 91.335 759.24C90.9083 758.557 90.311 758.216 89.543 758.216C89.031 758.216 88.5937 758.365 88.231 758.664C87.8683 758.963 87.591 759.421 87.399 760.04C87.207 760.659 87.111 761.448 87.111 762.408C87.111 763.859 87.3243 764.925 87.751 765.608C88.1777 766.291 88.775 766.632 89.543 766.632ZM109.441 769C109.014 769 108.683 768.883 108.449 768.648C108.214 768.392 108.097 768.051 108.097 767.624V747.656C108.097 747.208 108.203 746.867 108.417 746.632C108.651 746.397 108.982 746.28 109.409 746.28C109.835 746.28 110.155 746.397 110.369 746.632C110.603 746.867 110.721 747.208 110.721 747.656V766.696H121.217C121.601 766.696 121.899 766.803 122.113 767.016C122.326 767.208 122.433 767.485 122.433 767.848C122.433 768.211 122.326 768.499 122.113 768.712C121.899 768.904 121.601 769 121.217 769H109.441ZM126.784 769.224C126.357 769.224 126.026 769.107 125.792 768.872C125.578 768.616 125.472 768.275 125.472 767.848V747.592C125.472 747.144 125.578 746.803 125.792 746.568C126.026 746.333 126.357 746.216 126.784 746.216C127.21 746.216 127.53 746.333 127.744 746.568C127.978 746.803 128.096 747.144 128.096 747.592V767.848C128.096 768.275 127.989 768.616 127.776 768.872C127.562 769.107 127.232 769.224 126.784 769.224ZM150.97 773.256C151.184 773.576 151.269 773.864 151.226 774.12C151.205 774.397 151.098 774.621 150.906 774.792C150.736 774.984 150.522 775.101 150.266 775.144C150.01 775.208 149.744 775.176 149.466 775.048C149.21 774.941 148.986 774.728 148.794 774.408L146.714 771.112C146.373 770.515 145.904 770.056 145.306 769.736C144.709 769.437 143.994 769.288 143.162 769.288L145.338 768.36C146.341 768.36 147.13 768.541 147.706 768.904C148.304 769.245 148.89 769.885 149.466 770.824L150.97 773.256ZM143.162 769.288C141.072 769.288 139.248 768.819 137.69 767.88C136.154 766.92 134.96 765.576 134.106 763.848C133.274 762.12 132.858 760.072 132.858 757.704C132.858 755.912 133.093 754.312 133.562 752.904C134.053 751.475 134.746 750.269 135.642 749.288C136.538 748.285 137.616 747.517 138.874 746.984C140.154 746.429 141.584 746.152 143.162 746.152C145.296 746.152 147.13 746.621 148.666 747.56C150.224 748.499 151.418 749.832 152.25 751.56C153.104 753.267 153.53 755.304 153.53 757.672C153.53 759.464 153.285 761.075 152.794 762.504C152.304 763.933 151.61 765.149 150.714 766.152C149.818 767.155 148.73 767.933 147.45 768.488C146.192 769.021 144.762 769.288 143.162 769.288ZM143.162 766.952C144.784 766.952 146.149 766.589 147.258 765.864C148.389 765.139 149.253 764.083 149.85 762.696C150.448 761.309 150.746 759.645 150.746 757.704C150.746 754.781 150.085 752.52 148.762 750.92C147.461 749.299 145.594 748.488 143.162 748.488C141.584 748.488 140.229 748.851 139.098 749.576C137.989 750.301 137.136 751.357 136.538 752.744C135.941 754.109 135.642 755.763 135.642 757.704C135.642 760.605 136.304 762.877 137.626 764.52C138.949 766.141 140.794 766.952 143.162 766.952ZM167.118 769.288C165.624 769.288 164.312 769.096 163.182 768.712C162.072 768.307 161.134 767.72 160.366 766.952C159.598 766.163 159.022 765.192 158.638 764.04C158.254 762.888 158.062 761.565 158.062 760.072V747.56C158.062 747.112 158.168 746.781 158.382 746.568C158.616 746.333 158.947 746.216 159.374 746.216C159.8 746.216 160.12 746.333 160.334 746.568C160.568 746.781 160.686 747.112 160.686 747.56V759.944C160.686 762.291 161.23 764.051 162.318 765.224C163.406 766.376 165.006 766.952 167.118 766.952C169.23 766.952 170.819 766.376 171.885 765.224C172.952 764.051 173.486 762.291 173.486 759.944V747.56C173.486 747.112 173.603 746.781 173.838 746.568C174.072 746.333 174.403 746.216 174.83 746.216C175.235 746.216 175.544 746.333 175.758 746.568C175.992 746.781 176.11 747.112 176.11 747.56V760.072C176.11 762.056 175.768 763.741 175.086 765.128C174.424 766.515 173.422 767.56 172.078 768.264C170.734 768.947 169.08 769.288 167.118 769.288ZM182.815 769.224C182.388 769.224 182.057 769.107 181.823 768.872C181.609 768.616 181.503 768.275 181.503 767.848V747.592C181.503 747.144 181.609 746.803 181.823 746.568C182.057 746.333 182.388 746.216 182.815 746.216C183.241 746.216 183.561 746.333 183.775 746.568C184.009 746.803 184.127 747.144 184.127 747.592V767.848C184.127 768.275 184.02 768.616 183.807 768.872C183.593 769.107 183.263 769.224 182.815 769.224ZM191.161 769C190.692 769 190.33 768.883 190.074 768.648C189.839 768.392 189.722 768.029 189.722 767.56V747.88C189.722 747.411 189.839 747.059 190.074 746.824C190.33 746.568 190.692 746.44 191.161 746.44H197.338C200.986 746.44 203.802 747.4 205.786 749.32C207.77 751.24 208.762 754.035 208.762 757.704C208.762 759.539 208.506 761.16 207.994 762.568C207.503 763.955 206.767 765.128 205.786 766.088C204.804 767.048 203.61 767.773 202.202 768.264C200.794 768.755 199.172 769 197.338 769H191.161ZM192.346 766.76H197.146C198.639 766.76 199.93 766.568 201.018 766.184C202.127 765.8 203.044 765.235 203.77 764.488C204.516 763.741 205.071 762.803 205.434 761.672C205.796 760.52 205.978 759.197 205.978 757.704C205.978 754.696 205.242 752.445 203.77 750.952C202.298 749.437 200.09 748.68 197.146 748.68H192.346V766.76ZM214.784 769.224C214.357 769.224 214.026 769.107 213.792 768.872C213.578 768.616 213.472 768.275 213.472 767.848V747.592C213.472 747.144 213.578 746.803 213.792 746.568C214.026 746.333 214.357 746.216 214.784 746.216C215.21 746.216 215.53 746.333 215.744 746.568C215.978 746.803 216.096 747.144 216.096 747.592V767.848C216.096 768.275 215.989 768.616 215.776 768.872C215.562 769.107 215.232 769.224 214.784 769.224ZM228.538 769.224C228.133 769.224 227.813 769.107 227.578 768.872C227.344 768.616 227.226 768.275 227.226 767.848V748.712H220.026C219.642 748.712 219.344 748.605 219.13 748.392C218.917 748.179 218.81 747.901 218.81 747.56C218.81 747.197 218.917 746.92 219.13 746.728C219.344 746.536 219.642 746.44 220.026 746.44H237.082C237.466 746.44 237.765 746.536 237.978 746.728C238.192 746.92 238.298 747.197 238.298 747.56C238.298 747.923 238.192 748.211 237.978 748.424C237.765 748.616 237.466 748.712 237.082 748.712H229.882V767.848C229.882 768.275 229.765 768.616 229.53 768.872C229.317 769.107 228.986 769.224 228.538 769.224ZM247.974 769.224C247.547 769.224 247.216 769.107 246.982 768.872C246.768 768.616 246.661 768.264 246.661 767.816V757.32L247.238 759.144L239.206 748.072C239.014 747.795 238.918 747.517 238.918 747.24C238.939 746.941 239.056 746.696 239.27 746.504C239.483 746.312 239.76 746.216 240.102 746.216C240.4 746.216 240.667 746.291 240.902 746.44C241.136 746.568 241.35 746.781 241.542 747.08L248.358 756.488H247.686L254.502 747.08C254.736 746.76 254.96 746.536 255.174 746.408C255.387 746.28 255.643 746.216 255.942 746.216C256.283 746.216 256.55 746.312 256.742 746.504C256.934 746.675 257.03 746.909 257.03 747.208C257.051 747.485 256.955 747.784 256.742 748.104L248.742 759.144L249.286 757.32V767.816C249.286 768.755 248.848 769.224 247.974 769.224ZM274.934 769.288C273.441 769.288 272.15 769.053 271.062 768.584C269.974 768.093 269.142 767.421 268.566 766.568C268.011 765.715 267.734 764.723 267.734 763.592C267.734 762.867 267.83 762.205 268.022 761.608C268.214 760.989 268.502 760.413 268.886 759.88C269.291 759.325 269.793 758.792 270.39 758.28C270.987 757.768 271.681 757.245 272.47 756.712L273.494 756.04L273.142 756.584C272.118 755.475 271.393 754.515 270.966 753.704C270.561 752.872 270.358 752.019 270.358 751.144C270.358 750.163 270.582 749.299 271.03 748.552C271.478 747.784 272.118 747.197 272.95 746.792C273.803 746.365 274.785 746.152 275.894 746.152C277.387 746.152 278.603 746.568 279.542 747.4C280.481 748.211 280.95 749.32 280.95 750.728C280.95 751.496 280.801 752.221 280.502 752.904C280.203 753.565 279.702 754.237 278.998 754.92C278.294 755.581 277.313 756.285 276.054 757.032L276.118 756.36L282.102 763.08H281.526C281.825 762.568 282.081 761.981 282.294 761.32C282.529 760.659 282.721 759.944 282.87 759.176C283.041 758.387 283.158 757.555 283.222 756.68C283.265 756.317 283.382 756.04 283.574 755.848C283.766 755.656 284.043 755.56 284.406 755.56C284.769 755.56 285.046 755.667 285.238 755.88C285.43 756.093 285.505 756.403 285.462 756.808C285.377 757.875 285.227 758.888 285.014 759.848C284.801 760.808 284.523 761.704 284.182 762.536C283.841 763.347 283.457 764.093 283.03 764.776L282.998 764.008L286.166 767.496C286.443 767.773 286.571 768.051 286.55 768.328C286.55 768.584 286.443 768.797 286.23 768.968C286.038 769.139 285.771 769.224 285.43 769.224C285.131 769.224 284.886 769.16 284.694 769.032C284.502 768.925 284.278 768.755 284.022 768.52L281.59 765.768H282.262C281.366 766.877 280.289 767.741 279.03 768.36C277.771 768.979 276.406 769.288 274.934 769.288ZM275.062 767.144C276.278 767.144 277.355 766.888 278.294 766.376C279.254 765.864 280.086 765.117 280.79 764.136L280.758 764.936L273.974 757.512L274.998 757.608L274.006 758.248C273.089 758.845 272.353 759.411 271.798 759.944C271.265 760.456 270.881 760.989 270.646 761.544C270.411 762.099 270.294 762.717 270.294 763.4C270.294 764.573 270.699 765.491 271.51 766.152C272.321 766.813 273.505 767.144 275.062 767.144ZM275.894 748.168C274.977 748.168 274.23 748.435 273.654 748.968C273.078 749.501 272.79 750.205 272.79 751.08C272.79 751.549 272.854 751.987 272.982 752.392C273.131 752.776 273.387 753.213 273.75 753.704C274.113 754.173 274.614 754.781 275.254 755.528L274.582 755.56C275.606 754.899 276.417 754.323 277.014 753.832C277.611 753.32 278.038 752.829 278.294 752.36C278.55 751.891 278.678 751.389 278.678 750.856C278.678 750.024 278.422 749.373 277.91 748.904C277.398 748.413 276.726 748.168 275.894 748.168ZM300.316 769C299.889 769 299.558 768.883 299.324 768.648C299.089 768.392 298.972 768.051 298.972 767.624V747.656C298.972 747.208 299.078 746.867 299.292 746.632C299.526 746.397 299.857 746.28 300.284 746.28C300.71 746.28 301.03 746.397 301.244 746.632C301.478 746.867 301.596 747.208 301.596 747.656V766.696H312.092C312.476 766.696 312.774 766.803 312.988 767.016C313.201 767.208 313.308 767.485 313.308 767.848C313.308 768.211 313.201 768.499 312.988 768.712C312.774 768.904 312.476 769 312.092 769H300.316ZM317.659 769.224C317.232 769.224 316.901 769.107 316.667 768.872C316.453 768.616 316.347 768.275 316.347 767.848V747.592C316.347 747.144 316.453 746.803 316.667 746.568C316.901 746.333 317.232 746.216 317.659 746.216C318.085 746.216 318.405 746.333 318.619 746.568C318.853 746.803 318.971 747.144 318.971 747.592V767.848C318.971 768.275 318.864 768.616 318.651 768.872C318.437 769.107 318.107 769.224 317.659 769.224ZM331.861 769.288C330.859 769.288 329.877 769.203 328.917 769.032C327.957 768.861 327.061 768.616 326.229 768.296C325.419 767.976 324.683 767.571 324.021 767.08C323.765 766.888 323.584 766.675 323.477 766.44C323.392 766.184 323.371 765.939 323.413 765.704C323.477 765.448 323.584 765.235 323.733 765.064C323.904 764.893 324.107 764.797 324.341 764.776C324.576 764.755 324.832 764.829 325.109 765C326.069 765.683 327.093 766.184 328.181 766.504C329.269 766.803 330.496 766.952 331.861 766.952C333.781 766.952 335.2 766.6 336.117 765.896C337.056 765.171 337.525 764.221 337.525 763.048C337.525 762.088 337.184 761.341 336.501 760.808C335.84 760.253 334.72 759.816 333.141 759.496L329.813 758.824C327.808 758.397 326.304 757.704 325.301 756.744C324.32 755.763 323.829 754.461 323.829 752.84C323.829 751.837 324.032 750.931 324.437 750.12C324.843 749.288 325.408 748.584 326.133 748.008C326.859 747.411 327.723 746.952 328.725 746.632C329.728 746.312 330.837 746.152 332.053 746.152C333.397 746.152 334.645 746.344 335.797 746.728C336.971 747.091 338.027 747.645 338.965 748.392C339.2 748.584 339.36 748.808 339.445 749.064C339.531 749.299 339.541 749.533 339.477 749.768C339.413 749.981 339.296 750.163 339.125 750.312C338.976 750.461 338.773 750.547 338.517 750.568C338.283 750.589 338.016 750.504 337.717 750.312C336.864 749.672 335.979 749.213 335.061 748.936C334.144 748.637 333.131 748.488 332.021 748.488C330.891 748.488 329.909 748.659 329.077 749C328.267 749.341 327.627 749.843 327.157 750.504C326.709 751.144 326.485 751.891 326.485 752.744C326.485 753.768 326.795 754.579 327.413 755.176C328.053 755.773 329.088 756.211 330.517 756.488L333.845 757.192C336 757.64 337.589 758.323 338.613 759.24C339.659 760.136 340.181 761.363 340.181 762.92C340.181 763.859 339.989 764.723 339.605 765.512C339.221 766.301 338.667 766.984 337.941 767.56C337.216 768.115 336.341 768.541 335.317 768.84C334.293 769.139 333.141 769.288 331.861 769.288ZM350.632 769.224C350.227 769.224 349.907 769.107 349.672 768.872C349.437 768.616 349.32 768.275 349.32 767.848V748.712H342.12C341.736 748.712 341.437 748.605 341.224 748.392C341.011 748.179 340.904 747.901 340.904 747.56C340.904 747.197 341.011 746.92 341.224 746.728C341.437 746.536 341.736 746.44 342.12 746.44H359.176C359.56 746.44 359.859 746.536 360.072 746.728C360.285 746.92 360.392 747.197 360.392 747.56C360.392 747.923 360.285 748.211 360.072 748.424C359.859 748.616 359.56 748.712 359.176 748.712H351.976V767.848C351.976 768.275 351.859 768.616 351.624 768.872C351.411 769.107 351.08 769.224 350.632 769.224ZM364.346 769.224C363.919 769.224 363.589 769.107 363.354 768.872C363.141 768.616 363.034 768.275 363.034 767.848V747.592C363.034 747.144 363.141 746.803 363.354 746.568C363.589 746.333 363.919 746.216 364.346 746.216C364.773 746.216 365.093 746.333 365.306 746.568C365.541 746.803 365.658 747.144 365.658 747.592V767.848C365.658 768.275 365.551 768.616 365.338 768.872C365.125 769.107 364.794 769.224 364.346 769.224ZM372.501 769.224C372.095 769.224 371.786 769.117 371.573 768.904C371.359 768.669 371.253 768.339 371.253 767.912V747.56C371.253 747.133 371.359 746.803 371.573 746.568C371.786 746.333 372.063 746.216 372.405 746.216C372.746 746.216 372.991 746.28 373.141 746.408C373.311 746.515 373.503 746.717 373.717 747.016L387.669 765.608H386.901V747.496C386.901 747.091 387.007 746.781 387.221 746.568C387.434 746.333 387.743 746.216 388.149 746.216C388.533 746.216 388.821 746.333 389.013 746.568C389.226 746.781 389.333 747.091 389.333 747.496V767.944C389.333 768.349 389.237 768.669 389.045 768.904C388.874 769.117 388.618 769.224 388.277 769.224C387.957 769.224 387.701 769.16 387.509 769.032C387.317 768.904 387.114 768.701 386.901 768.424L372.981 749.832H373.717V767.912C373.717 768.339 373.61 768.669 373.397 768.904C373.183 769.117 372.885 769.224 372.501 769.224ZM405.244 769.288C402.834 769.288 400.796 768.829 399.132 767.912C397.49 766.995 396.242 765.672 395.388 763.944C394.535 762.216 394.108 760.147 394.108 757.736C394.108 755.944 394.343 754.333 394.812 752.904C395.303 751.475 396.007 750.269 396.924 749.288C397.863 748.285 398.994 747.517 400.316 746.984C401.66 746.429 403.175 746.152 404.86 746.152C406.204 746.152 407.506 746.344 408.764 746.728C410.023 747.091 411.143 747.677 412.124 748.488C412.38 748.68 412.54 748.893 412.604 749.128C412.668 749.363 412.658 749.597 412.572 749.832C412.508 750.067 412.391 750.269 412.22 750.44C412.071 750.589 411.868 750.675 411.612 750.696C411.378 750.717 411.132 750.643 410.876 750.472C410.002 749.789 409.074 749.299 408.092 749C407.111 748.68 406.023 748.52 404.828 748.52C403.122 748.52 401.671 748.883 400.476 749.608C399.303 750.333 398.407 751.379 397.788 752.744C397.191 754.109 396.892 755.773 396.892 757.736C396.892 760.723 397.586 763.005 398.972 764.584C400.38 766.163 402.492 766.952 405.308 766.952C406.332 766.952 407.335 766.856 408.316 766.664C409.298 766.451 410.226 766.163 411.1 765.8L410.524 767.304V759.336H405.948C405.564 759.336 405.276 759.24 405.084 759.048C404.892 758.856 404.796 758.6 404.796 758.28C404.796 757.939 404.892 757.683 405.084 757.512C405.276 757.341 405.564 757.256 405.948 757.256H411.676C412.039 757.256 412.316 757.352 412.508 757.544C412.7 757.736 412.796 758.013 412.796 758.376V766.728C412.796 767.048 412.743 767.315 412.636 767.528C412.53 767.741 412.348 767.901 412.092 768.008C411.196 768.371 410.119 768.68 408.86 768.936C407.623 769.171 406.418 769.288 405.244 769.288ZM425.455 769.288C424.452 769.288 423.471 769.203 422.511 769.032C421.551 768.861 420.655 768.616 419.823 768.296C419.012 767.976 418.276 767.571 417.615 767.08C417.359 766.888 417.178 766.675 417.071 766.44C416.986 766.184 416.964 765.939 417.007 765.704C417.071 765.448 417.178 765.235 417.327 765.064C417.498 764.893 417.7 764.797 417.935 764.776C418.17 764.755 418.426 764.829 418.703 765C419.663 765.683 420.687 766.184 421.775 766.504C422.863 766.803 424.09 766.952 425.455 766.952C427.375 766.952 428.794 766.6 429.711 765.896C430.65 765.171 431.119 764.221 431.119 763.048C431.119 762.088 430.778 761.341 430.095 760.808C429.434 760.253 428.314 759.816 426.735 759.496L423.407 758.824C421.402 758.397 419.898 757.704 418.895 756.744C417.914 755.763 417.423 754.461 417.423 752.84C417.423 751.837 417.626 750.931 418.031 750.12C418.436 749.288 419.002 748.584 419.727 748.008C420.452 747.411 421.316 746.952 422.319 746.632C423.322 746.312 424.431 746.152 425.647 746.152C426.991 746.152 428.239 746.344 429.391 746.728C430.564 747.091 431.62 747.645 432.559 748.392C432.794 748.584 432.954 748.808 433.039 749.064C433.124 749.299 433.135 749.533 433.071 749.768C433.007 749.981 432.89 750.163 432.719 750.312C432.57 750.461 432.367 750.547 432.111 750.568C431.876 750.589 431.61 750.504 431.311 750.312C430.458 749.672 429.572 749.213 428.655 748.936C427.738 748.637 426.724 748.488 425.615 748.488C424.484 748.488 423.503 748.659 422.671 749C421.86 749.341 421.22 749.843 420.751 750.504C420.303 751.144 420.079 751.891 420.079 752.744C420.079 753.768 420.388 754.579 421.007 755.176C421.647 755.773 422.682 756.211 424.111 756.488L427.439 757.192C429.594 757.64 431.183 758.323 432.207 759.24C433.252 760.136 433.775 761.363 433.775 762.92C433.775 763.859 433.583 764.723 433.199 765.512C432.815 766.301 432.26 766.984 431.535 767.56C430.81 768.115 429.935 768.541 428.911 768.84C427.887 769.139 426.735 769.288 425.455 769.288Z" fill="black"/>
</g>
<g filter="url(#filter3_d_3473_738)">
<rect x="138" y="446" width="188" height="84" rx="12" fill="white" fill-opacity="0.8" shape-rendering="crispEdges"/>
<path d="M168.932 499.32C167.076 499.32 165.487 498.883 164.164 498.008C162.863 497.112 161.871 495.832 161.188 494.168C160.505 492.504 160.164 490.488 160.164 488.12C160.164 486.2 160.377 484.504 160.804 483.032C161.252 481.539 161.892 480.28 162.724 479.256C163.556 478.232 164.569 477.453 165.764 476.92C166.98 476.387 168.345 476.12 169.86 476.12C170.799 476.12 171.748 476.269 172.708 476.568C173.689 476.845 174.607 477.272 175.46 477.848C175.801 478.061 176.025 478.339 176.132 478.68C176.239 479.021 176.249 479.363 176.164 479.704C176.1 480.024 175.951 480.312 175.716 480.568C175.503 480.803 175.225 480.952 174.884 481.016C174.543 481.059 174.169 480.963 173.764 480.728C173.039 480.301 172.356 480.003 171.716 479.832C171.076 479.661 170.436 479.576 169.796 479.576C168.559 479.576 167.513 479.864 166.66 480.44C165.807 481.016 165.156 481.88 164.708 483.032C164.281 484.184 164.068 485.624 164.068 487.352V489.752H163.684C163.855 488.664 164.207 487.736 164.74 486.968C165.295 486.179 165.999 485.581 166.852 485.176C167.705 484.749 168.655 484.536 169.7 484.536C171.001 484.536 172.153 484.845 173.156 485.464C174.159 486.083 174.948 486.936 175.524 488.024C176.1 489.112 176.388 490.36 176.388 491.768C176.388 493.219 176.068 494.52 175.428 495.672C174.809 496.803 173.935 497.699 172.804 498.36C171.695 499 170.404 499.32 168.932 499.32ZM168.708 496.056C169.476 496.056 170.148 495.885 170.724 495.544C171.321 495.203 171.78 494.723 172.1 494.104C172.42 493.464 172.58 492.739 172.58 491.928C172.58 491.096 172.42 490.371 172.1 489.752C171.78 489.133 171.321 488.653 170.724 488.312C170.148 487.949 169.476 487.768 168.708 487.768C167.94 487.768 167.268 487.949 166.692 488.312C166.116 488.653 165.657 489.133 165.316 489.752C164.996 490.371 164.836 491.096 164.836 491.928C164.836 492.739 164.996 493.464 165.316 494.104C165.657 494.723 166.116 495.203 166.692 495.544C167.268 495.885 167.94 496.056 168.708 496.056ZM188.216 498.744C188.002 499.128 187.736 499.373 187.416 499.48C187.117 499.608 186.808 499.629 186.488 499.544C186.189 499.48 185.933 499.331 185.72 499.096C185.506 498.883 185.378 498.616 185.336 498.296C185.293 497.955 185.378 497.592 185.592 497.208L197.4 476.728C197.613 476.344 197.869 476.088 198.168 475.96C198.488 475.832 198.797 475.811 199.096 475.896C199.394 475.96 199.65 476.109 199.864 476.344C200.077 476.579 200.205 476.867 200.248 477.208C200.312 477.528 200.237 477.869 200.024 478.232L188.216 498.744ZM184.792 489.912C183 489.912 181.602 489.293 180.6 488.056C179.597 486.819 179.096 485.133 179.096 483C179.096 481.571 179.32 480.344 179.768 479.32C180.216 478.296 180.866 477.507 181.72 476.952C182.573 476.397 183.597 476.12 184.792 476.12C186.584 476.12 187.981 476.739 188.984 477.976C189.986 479.192 190.488 480.867 190.488 483C190.488 484.429 190.264 485.667 189.816 486.712C189.368 487.736 188.717 488.525 187.864 489.08C187.01 489.635 185.986 489.912 184.792 489.912ZM184.792 487.224C185.304 487.224 185.741 487.075 186.104 486.776C186.466 486.456 186.744 485.987 186.936 485.368C187.128 484.749 187.224 483.96 187.224 483C187.224 481.571 187.01 480.515 186.584 479.832C186.157 479.149 185.56 478.808 184.792 478.808C184.28 478.808 183.842 478.957 183.48 479.256C183.117 479.555 182.84 480.013 182.648 480.632C182.456 481.251 182.36 482.04 182.36 483C182.36 484.451 182.573 485.517 183 486.2C183.426 486.883 184.024 487.224 184.792 487.224ZM200.856 499.32C199.064 499.32 197.666 498.701 196.664 497.464C195.661 496.227 195.16 494.541 195.16 492.408C195.16 490.979 195.384 489.752 195.832 488.728C196.28 487.704 196.93 486.915 197.784 486.36C198.637 485.805 199.661 485.528 200.856 485.528C202.648 485.528 204.045 486.147 205.048 487.384C206.05 488.6 206.552 490.275 206.552 492.408C206.552 493.837 206.328 495.075 205.88 496.12C205.432 497.144 204.781 497.933 203.928 498.488C203.074 499.043 202.05 499.32 200.856 499.32ZM200.856 496.632C201.368 496.632 201.805 496.483 202.168 496.184C202.53 495.885 202.808 495.427 203 494.808C203.192 494.168 203.288 493.368 203.288 492.408C203.288 490.979 203.074 489.923 202.648 489.24C202.221 488.557 201.624 488.216 200.856 488.216C200.344 488.216 199.906 488.365 199.544 488.664C199.181 488.963 198.904 489.421 198.712 490.04C198.52 490.659 198.424 491.448 198.424 492.408C198.424 493.859 198.637 494.925 199.064 495.608C199.49 496.291 200.088 496.632 200.856 496.632ZM226.257 499.224C225.852 499.224 225.532 499.107 225.297 498.872C225.062 498.616 224.945 498.275 224.945 497.848V478.712H217.745C217.361 478.712 217.062 478.605 216.849 478.392C216.636 478.179 216.529 477.901 216.529 477.56C216.529 477.197 216.636 476.92 216.849 476.728C217.062 476.536 217.361 476.44 217.745 476.44H234.801C235.185 476.44 235.484 476.536 235.697 476.728C235.91 476.92 236.017 477.197 236.017 477.56C236.017 477.923 235.91 478.211 235.697 478.424C235.484 478.616 235.185 478.712 234.801 478.712H227.601V497.848C227.601 498.275 227.484 498.616 227.249 498.872C227.036 499.107 226.705 499.224 226.257 499.224ZM240.099 499C239.63 499 239.267 498.883 239.011 498.648C238.776 498.392 238.659 498.029 238.659 497.56V477.88C238.659 477.411 238.776 477.059 239.011 476.824C239.267 476.568 239.63 476.44 240.099 476.44H252.003C252.366 476.44 252.643 476.536 252.835 476.728C253.027 476.92 253.123 477.187 253.123 477.528C253.123 477.891 253.027 478.168 252.835 478.36C252.643 478.552 252.366 478.648 252.003 478.648H241.219V486.456H251.331C251.694 486.456 251.971 486.552 252.163 486.744C252.355 486.915 252.451 487.181 252.451 487.544C252.451 487.907 252.355 488.184 252.163 488.376C251.971 488.568 251.694 488.664 251.331 488.664H241.219V496.792H252.003C252.366 496.792 252.643 496.888 252.835 497.08C253.027 497.272 253.123 497.539 253.123 497.88C253.123 498.243 253.027 498.52 252.835 498.712C252.643 498.904 252.366 499 252.003 499H240.099ZM256.398 499.224C256.056 499.224 255.779 499.149 255.566 499C255.374 498.829 255.256 498.616 255.214 498.36C255.192 498.083 255.256 497.773 255.406 497.432L264.206 477.4C264.398 476.973 264.622 476.675 264.878 476.504C265.155 476.312 265.454 476.216 265.774 476.216C266.094 476.216 266.382 476.312 266.638 476.504C266.915 476.675 267.139 476.973 267.31 477.4L276.142 497.432C276.312 497.773 276.376 498.083 276.334 498.36C276.312 498.637 276.206 498.851 276.014 499C275.822 499.149 275.555 499.224 275.214 499.224C274.83 499.224 274.52 499.128 274.286 498.936C274.051 498.723 273.859 498.424 273.71 498.04L271.342 492.568L272.622 493.24H258.862L260.174 492.568L257.838 498.04C257.646 498.445 257.443 498.744 257.23 498.936C257.016 499.128 256.739 499.224 256.398 499.224ZM265.742 479.512L260.59 491.64L259.822 491.032H271.662L270.958 491.64L265.806 479.512H265.742ZM281.47 499.224C281.086 499.224 280.788 499.117 280.574 498.904C280.361 498.669 280.254 498.349 280.254 497.944V477.496C280.254 477.069 280.361 476.749 280.574 476.536C280.788 476.323 281.086 476.216 281.47 476.216C281.812 476.216 282.078 476.291 282.27 476.44C282.484 476.568 282.676 476.792 282.846 477.112L291.614 493.624H290.654L299.39 477.112C299.561 476.792 299.742 476.568 299.934 476.44C300.126 476.291 300.404 476.216 300.766 476.216C301.129 476.216 301.417 476.323 301.63 476.536C301.844 476.749 301.95 477.069 301.95 477.496V497.944C301.95 498.349 301.844 498.669 301.63 498.904C301.438 499.117 301.14 499.224 300.734 499.224C300.35 499.224 300.052 499.117 299.838 498.904C299.625 498.669 299.518 498.349 299.518 497.944V479.96H300.286L292.286 494.968C292.137 495.245 291.977 495.448 291.806 495.576C291.657 495.683 291.433 495.736 291.134 495.736C290.836 495.736 290.601 495.672 290.43 495.544C290.26 495.416 290.11 495.224 289.982 494.968L281.886 479.928H282.654V497.944C282.654 498.349 282.548 498.669 282.334 498.904C282.142 499.117 281.854 499.224 281.47 499.224Z" fill="black"/>
</g>
<g filter="url(#filter4_d_3473_738)">
<rect x="118" y="290" width="260" height="84" rx="12" fill="white" fill-opacity="0.8" shape-rendering="crispEdges"/>
<path d="M147.792 343.32C146.661 343.32 145.509 343.171 144.336 342.872C143.163 342.573 142.085 342.115 141.104 341.496C140.699 341.24 140.421 340.941 140.272 340.6C140.144 340.237 140.112 339.885 140.176 339.544C140.261 339.181 140.421 338.883 140.656 338.648C140.912 338.392 141.211 338.243 141.552 338.2C141.915 338.157 142.309 338.253 142.736 338.488C143.525 338.936 144.325 339.277 145.136 339.512C145.947 339.747 146.811 339.864 147.728 339.864C148.624 339.864 149.392 339.704 150.032 339.384C150.672 339.064 151.163 338.616 151.504 338.04C151.845 337.464 152.016 336.792 152.016 336.024C152.016 334.829 151.653 333.869 150.928 333.144C150.203 332.397 149.211 332.024 147.952 332.024C147.269 332.024 146.608 332.141 145.968 332.376C145.328 332.589 144.699 332.973 144.08 333.528C143.888 333.699 143.643 333.869 143.344 334.04C143.045 334.189 142.725 334.264 142.384 334.264C141.851 334.264 141.445 334.125 141.168 333.848C140.891 333.571 140.752 333.187 140.752 332.696V322.232C140.752 321.656 140.901 321.219 141.2 320.92C141.52 320.6 141.968 320.44 142.544 320.44H153.072C153.648 320.44 154.085 320.589 154.384 320.888C154.704 321.165 154.864 321.581 154.864 322.136C154.864 322.669 154.704 323.085 154.384 323.384C154.085 323.683 153.648 323.832 153.072 323.832H144.752V331H143.696C144.251 330.253 144.987 329.677 145.904 329.272C146.821 328.867 147.824 328.664 148.912 328.664C150.341 328.664 151.579 328.973 152.624 329.592C153.691 330.189 154.512 331.032 155.088 332.12C155.685 333.187 155.984 334.435 155.984 335.864C155.984 337.336 155.653 338.637 154.992 339.768C154.331 340.877 153.381 341.752 152.144 342.392C150.928 343.011 149.477 343.32 147.792 343.32ZM167.716 342.744C167.502 343.128 167.236 343.373 166.916 343.48C166.617 343.608 166.308 343.629 165.988 343.544C165.689 343.48 165.433 343.331 165.22 343.096C165.006 342.883 164.878 342.616 164.836 342.296C164.793 341.955 164.878 341.592 165.092 341.208L176.9 320.728C177.113 320.344 177.369 320.088 177.668 319.96C177.988 319.832 178.297 319.811 178.596 319.896C178.894 319.96 179.15 320.109 179.364 320.344C179.577 320.579 179.705 320.867 179.748 321.208C179.812 321.528 179.737 321.869 179.524 322.232L167.716 342.744ZM164.292 333.912C162.5 333.912 161.102 333.293 160.1 332.056C159.097 330.819 158.596 329.133 158.596 327C158.596 325.571 158.82 324.344 159.268 323.32C159.716 322.296 160.366 321.507 161.22 320.952C162.073 320.397 163.097 320.12 164.292 320.12C166.084 320.12 167.481 320.739 168.484 321.976C169.486 323.192 169.988 324.867 169.988 327C169.988 328.429 169.764 329.667 169.316 330.712C168.868 331.736 168.217 332.525 167.364 333.08C166.51 333.635 165.486 333.912 164.292 333.912ZM164.292 331.224C164.804 331.224 165.241 331.075 165.604 330.776C165.966 330.456 166.244 329.987 166.436 329.368C166.628 328.749 166.724 327.96 166.724 327C166.724 325.571 166.51 324.515 166.084 323.832C165.657 323.149 165.06 322.808 164.292 322.808C163.78 322.808 163.342 322.957 162.98 323.256C162.617 323.555 162.34 324.013 162.148 324.632C161.956 325.251 161.86 326.04 161.86 327C161.86 328.451 162.073 329.517 162.5 330.2C162.926 330.883 163.524 331.224 164.292 331.224ZM180.356 343.32C178.564 343.32 177.166 342.701 176.164 341.464C175.161 340.227 174.66 338.541 174.66 336.408C174.66 334.979 174.884 333.752 175.332 332.728C175.78 331.704 176.43 330.915 177.284 330.36C178.137 329.805 179.161 329.528 180.356 329.528C182.148 329.528 183.545 330.147 184.548 331.384C185.55 332.6 186.052 334.275 186.052 336.408C186.052 337.837 185.828 339.075 185.38 340.12C184.932 341.144 184.281 341.933 183.428 342.488C182.574 343.043 181.55 343.32 180.356 343.32ZM180.356 340.632C180.868 340.632 181.305 340.483 181.668 340.184C182.03 339.885 182.308 339.427 182.5 338.808C182.692 338.168 182.788 337.368 182.788 336.408C182.788 334.979 182.574 333.923 182.148 333.24C181.721 332.557 181.124 332.216 180.356 332.216C179.844 332.216 179.406 332.365 179.044 332.664C178.681 332.963 178.404 333.421 178.212 334.04C178.02 334.659 177.924 335.448 177.924 336.408C177.924 337.859 178.137 338.925 178.564 339.608C178.99 340.291 179.588 340.632 180.356 340.632ZM200.221 343.224C199.794 343.224 199.464 343.107 199.229 342.872C199.016 342.616 198.909 342.275 198.909 341.848V321.784C198.909 321.336 199.026 321.005 199.261 320.792C199.496 320.557 199.826 320.44 200.253 320.44H207.837C210.248 320.44 212.104 321.005 213.405 322.136C214.706 323.267 215.357 324.877 215.357 326.968C215.357 328.291 215.058 329.443 214.461 330.424C213.885 331.384 213.032 332.12 211.901 332.632C210.77 333.123 209.416 333.368 207.837 333.368L208.157 332.952H208.797C209.629 332.952 210.354 333.165 210.973 333.592C211.592 334.019 212.157 334.701 212.669 335.64L215.741 341.368C215.912 341.667 215.986 341.965 215.965 342.264C215.965 342.541 215.869 342.776 215.677 342.968C215.485 343.139 215.208 343.224 214.845 343.224C214.482 343.224 214.184 343.139 213.949 342.968C213.714 342.797 213.512 342.552 213.341 342.232L209.853 335.768C209.362 334.851 208.797 334.243 208.157 333.944C207.517 333.624 206.674 333.464 205.629 333.464H201.533V341.848C201.533 342.275 201.426 342.616 201.213 342.872C201 343.107 200.669 343.224 200.221 343.224ZM201.533 331.384H207.453C209.202 331.384 210.525 331.021 211.421 330.296C212.317 329.549 212.765 328.44 212.765 326.968C212.765 325.539 212.317 324.461 211.421 323.736C210.525 322.989 209.202 322.616 207.453 322.616H201.533V331.384ZM221.755 343C221.286 343 220.923 342.883 220.667 342.648C220.433 342.392 220.315 342.029 220.315 341.56V321.88C220.315 321.411 220.433 321.059 220.667 320.824C220.923 320.568 221.286 320.44 221.755 320.44H233.659C234.022 320.44 234.299 320.536 234.491 320.728C234.683 320.92 234.779 321.187 234.779 321.528C234.779 321.891 234.683 322.168 234.491 322.36C234.299 322.552 234.022 322.648 233.659 322.648H222.875V330.456H232.987C233.35 330.456 233.627 330.552 233.819 330.744C234.011 330.915 234.107 331.181 234.107 331.544C234.107 331.907 234.011 332.184 233.819 332.376C233.627 332.568 233.35 332.664 232.987 332.664H222.875V340.792H233.659C234.022 340.792 234.299 340.888 234.491 341.08C234.683 341.272 234.779 341.539 234.779 341.88C234.779 342.243 234.683 342.52 234.491 342.712C234.299 342.904 234.022 343 233.659 343H221.755ZM245.985 343.224C245.601 343.224 245.291 343.128 245.057 342.936C244.822 342.723 244.63 342.413 244.481 342.008L237.409 321.816C237.259 321.368 237.291 320.995 237.505 320.696C237.739 320.376 238.102 320.216 238.593 320.216C238.955 320.216 239.243 320.312 239.457 320.504C239.67 320.675 239.851 320.952 240.001 321.336L246.625 340.76H245.505L252.257 321.432C252.406 321.027 252.587 320.728 252.801 320.536C253.014 320.323 253.302 320.216 253.665 320.216C254.006 320.216 254.273 320.323 254.465 320.536C254.678 320.728 254.859 321.027 255.009 321.432L261.665 340.76H260.673L267.361 321.336C267.467 320.973 267.627 320.696 267.841 320.504C268.075 320.312 268.374 320.216 268.737 320.216C269.185 320.216 269.515 320.365 269.729 320.664C269.942 320.963 269.963 321.347 269.793 321.816L262.689 342.008C262.539 342.413 262.347 342.723 262.113 342.936C261.899 343.128 261.59 343.224 261.185 343.224C260.801 343.224 260.491 343.128 260.257 342.936C260.043 342.723 259.851 342.413 259.681 342.008L253.249 323.48H253.953L247.457 342.008C247.307 342.413 247.126 342.723 246.913 342.936C246.699 343.128 246.39 343.224 245.985 343.224ZM271.742 343.224C271.4 343.224 271.123 343.149 270.91 343C270.718 342.829 270.6 342.616 270.558 342.36C270.536 342.083 270.6 341.773 270.75 341.432L279.55 321.4C279.742 320.973 279.966 320.675 280.222 320.504C280.499 320.312 280.798 320.216 281.118 320.216C281.438 320.216 281.726 320.312 281.982 320.504C282.259 320.675 282.483 320.973 282.654 321.4L291.486 341.432C291.656 341.773 291.72 342.083 291.678 342.36C291.656 342.637 291.55 342.851 291.358 343C291.166 343.149 290.899 343.224 290.558 343.224C290.174 343.224 289.864 343.128 289.63 342.936C289.395 342.723 289.203 342.424 289.054 342.04L286.686 336.568L287.966 337.24H274.206L275.518 336.568L273.182 342.04C272.99 342.445 272.787 342.744 272.574 342.936C272.36 343.128 272.083 343.224 271.742 343.224ZM281.086 323.512L275.934 335.64L275.166 335.032H287.006L286.302 335.64L281.15 323.512H281.086ZM296.846 343.224C296.419 343.224 296.089 343.107 295.854 342.872C295.641 342.616 295.534 342.275 295.534 341.848V321.784C295.534 321.336 295.651 321.005 295.886 320.792C296.121 320.557 296.451 320.44 296.878 320.44H304.462C306.873 320.44 308.729 321.005 310.03 322.136C311.331 323.267 311.982 324.877 311.982 326.968C311.982 328.291 311.683 329.443 311.086 330.424C310.51 331.384 309.657 332.12 308.526 332.632C307.395 333.123 306.041 333.368 304.462 333.368L304.782 332.952H305.422C306.254 332.952 306.979 333.165 307.598 333.592C308.217 334.019 308.782 334.701 309.294 335.64L312.366 341.368C312.537 341.667 312.611 341.965 312.59 342.264C312.59 342.541 312.494 342.776 312.302 342.968C312.11 343.139 311.833 343.224 311.47 343.224C311.107 343.224 310.809 343.139 310.574 342.968C310.339 342.797 310.137 342.552 309.966 342.232L306.478 335.768C305.987 334.851 305.422 334.243 304.782 333.944C304.142 333.624 303.299 333.464 302.254 333.464H298.158V341.848C298.158 342.275 298.051 342.616 297.838 342.872C297.625 343.107 297.294 343.224 296.846 343.224ZM298.158 331.384H304.078C305.827 331.384 307.15 331.021 308.046 330.296C308.942 329.549 309.39 328.44 309.39 326.968C309.39 325.539 308.942 324.461 308.046 323.736C307.15 322.989 305.827 322.616 304.078 322.616H298.158V331.384ZM318.38 343C317.911 343 317.548 342.883 317.292 342.648C317.058 342.392 316.94 342.029 316.94 341.56V321.88C316.94 321.411 317.058 321.059 317.292 320.824C317.548 320.568 317.911 320.44 318.38 320.44H324.556C328.204 320.44 331.02 321.4 333.004 323.32C334.988 325.24 335.98 328.035 335.98 331.704C335.98 333.539 335.724 335.16 335.212 336.568C334.722 337.955 333.986 339.128 333.004 340.088C332.023 341.048 330.828 341.773 329.42 342.264C328.012 342.755 326.391 343 324.556 343H318.38ZM319.564 340.76H324.364C325.858 340.76 327.148 340.568 328.236 340.184C329.346 339.8 330.263 339.235 330.988 338.488C331.735 337.741 332.29 336.803 332.652 335.672C333.015 334.52 333.196 333.197 333.196 331.704C333.196 328.696 332.46 326.445 330.988 324.952C329.516 323.437 327.308 322.68 324.364 322.68H319.564V340.76ZM347.986 343.288C346.984 343.288 346.002 343.203 345.042 343.032C344.082 342.861 343.186 342.616 342.354 342.296C341.544 341.976 340.808 341.571 340.146 341.08C339.89 340.888 339.709 340.675 339.602 340.44C339.517 340.184 339.496 339.939 339.538 339.704C339.602 339.448 339.709 339.235 339.858 339.064C340.029 338.893 340.232 338.797 340.466 338.776C340.701 338.755 340.957 338.829 341.234 339C342.194 339.683 343.218 340.184 344.306 340.504C345.394 340.803 346.621 340.952 347.986 340.952C349.906 340.952 351.325 340.6 352.242 339.896C353.181 339.171 353.65 338.221 353.65 337.048C353.65 336.088 353.309 335.341 352.626 334.808C351.965 334.253 350.845 333.816 349.266 333.496L345.938 332.824C343.933 332.397 342.429 331.704 341.426 330.744C340.445 329.763 339.954 328.461 339.954 326.84C339.954 325.837 340.157 324.931 340.562 324.12C340.968 323.288 341.533 322.584 342.258 322.008C342.984 321.411 343.848 320.952 344.85 320.632C345.853 320.312 346.962 320.152 348.178 320.152C349.522 320.152 350.77 320.344 351.922 320.728C353.096 321.091 354.152 321.645 355.09 322.392C355.325 322.584 355.485 322.808 355.57 323.064C355.656 323.299 355.666 323.533 355.602 323.768C355.538 323.981 355.421 324.163 355.25 324.312C355.101 324.461 354.898 324.547 354.642 324.568C354.408 324.589 354.141 324.504 353.842 324.312C352.989 323.672 352.104 323.213 351.186 322.936C350.269 322.637 349.256 322.488 348.146 322.488C347.016 322.488 346.034 322.659 345.202 323C344.392 323.341 343.752 323.843 343.282 324.504C342.834 325.144 342.61 325.891 342.61 326.744C342.61 327.768 342.92 328.579 343.538 329.176C344.178 329.773 345.213 330.211 346.642 330.488L349.97 331.192C352.125 331.64 353.714 332.323 354.738 333.24C355.784 334.136 356.306 335.363 356.306 336.92C356.306 337.859 356.114 338.723 355.73 339.512C355.346 340.301 354.792 340.984 354.066 341.56C353.341 342.115 352.466 342.541 351.442 342.84C350.418 343.139 349.266 343.288 347.986 343.288Z" fill="black"/>
</g>
<g filter="url(#filter5_d_3473_738)">
<rect x="726" width="304" height="84" rx="12" fill="white" fill-opacity="0.8" shape-rendering="crispEdges"/>
<path d="M751.492 53C750.937 53 750.5 52.8507 750.18 52.552C749.881 52.232 749.732 51.8053 749.732 51.272C749.732 50.7173 749.881 50.3013 750.18 50.024C750.5 49.7467 750.937 49.608 751.492 49.608H755.076V33.896H757.06L752.356 36.744C751.951 36.9787 751.567 37.0747 751.204 37.032C750.863 36.968 750.564 36.8187 750.308 36.584C750.073 36.328 749.913 36.0293 749.828 35.688C749.743 35.3467 749.764 35.0053 749.892 34.664C750.041 34.3013 750.319 34.0027 750.724 33.768L755.14 31.112C755.567 30.856 755.993 30.6427 756.42 30.472C756.847 30.28 757.241 30.184 757.604 30.184C758.052 30.184 758.425 30.312 758.724 30.568C759.023 30.8027 759.172 31.1973 759.172 31.752V49.608H762.436C762.991 49.608 763.417 49.7467 763.716 50.024C764.036 50.3013 764.196 50.7173 764.196 51.272C764.196 51.8267 764.036 52.2533 763.716 52.552C763.417 52.8507 762.991 53 762.436 53H751.492ZM774.84 53.32C773.688 53.32 772.493 53.1707 771.256 52.872C770.018 52.5733 768.941 52.1253 768.024 51.528C767.597 51.2507 767.309 50.9307 767.16 50.568C767.01 50.2053 766.968 49.864 767.032 49.544C767.117 49.2027 767.277 48.9147 767.512 48.68C767.768 48.4453 768.077 48.3067 768.44 48.264C768.824 48.2213 769.24 48.3173 769.688 48.552C770.562 49.0213 771.405 49.3627 772.216 49.576C773.026 49.768 773.858 49.864 774.712 49.864C775.65 49.864 776.44 49.736 777.08 49.48C777.72 49.224 778.2 48.84 778.52 48.328C778.861 47.816 779.032 47.1973 779.032 46.472C779.032 45.4053 778.669 44.616 777.944 44.104C777.24 43.5707 776.205 43.304 774.84 43.304H772.792C772.194 43.304 771.736 43.1547 771.416 42.856C771.117 42.5573 770.968 42.1413 770.968 41.608C770.968 41.0747 771.117 40.6587 771.416 40.36C771.736 40.0613 772.194 39.912 772.792 39.912H774.456C775.266 39.912 775.96 39.784 776.536 39.528C777.112 39.2507 777.56 38.8667 777.88 38.376C778.2 37.8853 778.36 37.288 778.36 36.584C778.36 35.6027 778.029 34.856 777.368 34.344C776.728 33.832 775.789 33.576 774.552 33.576C773.762 33.576 773.016 33.672 772.312 33.864C771.629 34.0347 770.872 34.3653 770.04 34.856C769.656 35.0907 769.282 35.1867 768.92 35.144C768.578 35.1013 768.29 34.9627 768.056 34.728C767.821 34.4933 767.661 34.216 767.576 33.896C767.49 33.5547 767.512 33.2133 767.64 32.872C767.768 32.5093 768.034 32.2 768.44 31.944C769.357 31.3467 770.37 30.8987 771.48 30.6C772.589 30.28 773.73 30.12 774.904 30.12C776.461 30.12 777.794 30.3653 778.904 30.856C780.013 31.3253 780.856 32.008 781.432 32.904C782.029 33.7787 782.328 34.8453 782.328 36.104C782.328 37 782.157 37.8213 781.816 38.568C781.474 39.2933 780.994 39.912 780.376 40.424C779.757 40.936 779.01 41.2987 778.136 41.512V41.128C779.672 41.384 780.866 42.024 781.72 43.048C782.573 44.0507 783 45.3093 783 46.824C783 48.1467 782.669 49.2987 782.008 50.28C781.346 51.2613 780.408 52.0187 779.192 52.552C777.976 53.064 776.525 53.32 774.84 53.32ZM795.403 52.744C795.19 53.128 794.923 53.3733 794.603 53.48C794.304 53.608 793.995 53.6293 793.675 53.544C793.376 53.48 793.12 53.3307 792.907 53.096C792.694 52.8827 792.566 52.616 792.523 52.296C792.48 51.9547 792.566 51.592 792.779 51.208L804.587 30.728C804.8 30.344 805.056 30.088 805.355 29.96C805.675 29.832 805.984 29.8107 806.283 29.896C806.582 29.96 806.838 30.1093 807.051 30.344C807.264 30.5787 807.392 30.8667 807.435 31.208C807.499 31.528 807.424 31.8693 807.211 32.232L795.403 52.744ZM791.979 43.912C790.187 43.912 788.79 43.2933 787.787 42.056C786.784 40.8187 786.283 39.1333 786.283 37C786.283 35.5707 786.507 34.344 786.955 33.32C787.403 32.296 788.054 31.5067 788.907 30.952C789.76 30.3973 790.784 30.12 791.979 30.12C793.771 30.12 795.168 30.7387 796.171 31.976C797.174 33.192 797.675 34.8667 797.675 37C797.675 38.4293 797.451 39.6667 797.003 40.712C796.555 41.736 795.904 42.5253 795.051 43.08C794.198 43.6347 793.174 43.912 791.979 43.912ZM791.979 41.224C792.491 41.224 792.928 41.0747 793.291 40.776C793.654 40.456 793.931 39.9867 794.123 39.368C794.315 38.7493 794.411 37.96 794.411 37C794.411 35.5707 794.198 34.5147 793.771 33.832C793.344 33.1493 792.747 32.808 791.979 32.808C791.467 32.808 791.03 32.9573 790.667 33.256C790.304 33.5547 790.027 34.0133 789.835 34.632C789.643 35.2507 789.547 36.04 789.547 37C789.547 38.4507 789.76 39.5173 790.187 40.2C790.614 40.8827 791.211 41.224 791.979 41.224ZM808.043 53.32C806.251 53.32 804.854 52.7013 803.851 51.464C802.848 50.2267 802.347 48.5413 802.347 46.408C802.347 44.9787 802.571 43.752 803.019 42.728C803.467 41.704 804.118 40.9147 804.971 40.36C805.824 39.8053 806.848 39.528 808.043 39.528C809.835 39.528 811.232 40.1467 812.235 41.384C813.238 42.6 813.739 44.2747 813.739 46.408C813.739 47.8373 813.515 49.0747 813.067 50.12C812.619 51.144 811.968 51.9333 811.115 52.488C810.262 53.0427 809.238 53.32 808.043 53.32ZM808.043 50.632C808.555 50.632 808.992 50.4827 809.355 50.184C809.718 49.8853 809.995 49.4267 810.187 48.808C810.379 48.168 810.475 47.368 810.475 46.408C810.475 44.9787 810.262 43.9227 809.835 43.24C809.408 42.5573 808.811 42.216 808.043 42.216C807.531 42.216 807.094 42.3653 806.731 42.664C806.368 42.9627 806.091 43.4213 805.899 44.04C805.707 44.6587 805.611 45.448 805.611 46.408C805.611 47.8587 805.824 48.9253 806.251 49.608C806.678 50.2907 807.275 50.632 808.043 50.632ZM827.877 53.224C827.493 53.224 827.194 53.1173 826.981 52.904C826.767 52.6693 826.661 52.3493 826.661 51.944V31.496C826.661 31.0693 826.767 30.7493 826.981 30.536C827.194 30.3227 827.493 30.216 827.877 30.216C828.218 30.216 828.485 30.2907 828.677 30.44C828.89 30.568 829.082 30.792 829.253 31.112L838.021 47.624H837.061L845.797 31.112C845.967 30.792 846.149 30.568 846.341 30.44C846.533 30.2907 846.81 30.216 847.173 30.216C847.535 30.216 847.823 30.3227 848.037 30.536C848.25 30.7493 848.357 31.0693 848.357 31.496V51.944C848.357 52.3493 848.25 52.6693 848.037 52.904C847.845 53.1173 847.546 53.224 847.141 53.224C846.757 53.224 846.458 53.1173 846.245 52.904C846.031 52.6693 845.925 52.3493 845.925 51.944V33.96H846.693L838.693 48.968C838.543 49.2453 838.383 49.448 838.213 49.576C838.063 49.6827 837.839 49.736 837.541 49.736C837.242 49.736 837.007 49.672 836.837 49.544C836.666 49.416 836.517 49.224 836.389 48.968L828.293 33.928H829.061V51.944C829.061 52.3493 828.954 52.6693 828.741 52.904C828.549 53.1173 828.261 53.224 827.877 53.224ZM853.492 53.224C853.15 53.224 852.873 53.1493 852.66 53C852.468 52.8293 852.35 52.616 852.308 52.36C852.286 52.0827 852.35 51.7733 852.5 51.432L861.3 31.4C861.492 30.9733 861.716 30.6747 861.972 30.504C862.249 30.312 862.548 30.216 862.868 30.216C863.188 30.216 863.476 30.312 863.732 30.504C864.009 30.6747 864.233 30.9733 864.404 31.4L873.236 51.432C873.406 51.7733 873.47 52.0827 873.428 52.36C873.406 52.6373 873.3 52.8507 873.108 53C872.916 53.1493 872.649 53.224 872.308 53.224C871.924 53.224 871.614 53.128 871.38 52.936C871.145 52.7227 870.953 52.424 870.804 52.04L868.436 46.568L869.716 47.24H855.956L857.268 46.568L854.932 52.04C854.74 52.4453 854.537 52.744 854.324 52.936C854.11 53.128 853.833 53.224 853.492 53.224ZM862.836 33.512L857.684 45.64L856.916 45.032H868.756L868.052 45.64L862.9 33.512H862.836ZM878.596 53.224C878.169 53.224 877.839 53.1067 877.604 52.872C877.391 52.616 877.284 52.2747 877.284 51.848V31.784C877.284 31.336 877.401 31.0053 877.636 30.792C877.871 30.5573 878.201 30.44 878.628 30.44H886.212C888.623 30.44 890.479 31.0053 891.78 32.136C893.081 33.2667 893.732 34.8773 893.732 36.968C893.732 38.2907 893.433 39.4427 892.836 40.424C892.26 41.384 891.407 42.12 890.276 42.632C889.145 43.1227 887.791 43.368 886.212 43.368L886.532 42.952H887.172C888.004 42.952 888.729 43.1653 889.348 43.592C889.967 44.0187 890.532 44.7013 891.044 45.64L894.116 51.368C894.287 51.6667 894.361 51.9653 894.34 52.264C894.34 52.5413 894.244 52.776 894.052 52.968C893.86 53.1387 893.583 53.224 893.22 53.224C892.857 53.224 892.559 53.1387 892.324 52.968C892.089 52.7973 891.887 52.552 891.716 52.232L888.228 45.768C887.737 44.8507 887.172 44.2427 886.532 43.944C885.892 43.624 885.049 43.464 884.004 43.464H879.908V51.848C879.908 52.2747 879.801 52.616 879.588 52.872C879.375 53.1067 879.044 53.224 878.596 53.224ZM879.908 41.384H885.828C887.577 41.384 888.9 41.0213 889.796 40.296C890.692 39.5493 891.14 38.44 891.14 36.968C891.14 35.5387 890.692 34.4613 889.796 33.736C888.9 32.9893 887.577 32.616 885.828 32.616H879.908V41.384ZM900.002 53.224C899.576 53.224 899.245 53.1067 899.01 52.872C898.797 52.616 898.69 52.2747 898.69 51.848V31.56C898.69 31.112 898.797 30.7813 899.01 30.568C899.245 30.3333 899.576 30.216 900.002 30.216C900.429 30.216 900.749 30.3333 900.962 30.568C901.197 30.7813 901.314 31.112 901.314 31.56V40.68H901.378L911.81 30.952C912.066 30.696 912.322 30.5147 912.578 30.408C912.834 30.28 913.112 30.216 913.41 30.216C913.816 30.216 914.104 30.312 914.274 30.504C914.466 30.696 914.541 30.9307 914.498 31.208C914.456 31.4853 914.306 31.752 914.05 32.008L903.138 42.12L903.17 40.712L914.562 51.24C914.882 51.5387 915.053 51.848 915.074 52.168C915.096 52.4667 915 52.7227 914.786 52.936C914.594 53.128 914.296 53.224 913.89 53.224C913.57 53.224 913.293 53.1493 913.058 53C912.845 52.872 912.6 52.6693 912.322 52.392L901.378 42.376H901.314V51.848C901.314 52.2747 901.208 52.616 900.994 52.872C900.781 53.1067 900.45 53.224 900.002 53.224ZM920.13 53C919.661 53 919.298 52.8827 919.042 52.648C918.808 52.392 918.69 52.0293 918.69 51.56V31.88C918.69 31.4107 918.808 31.0587 919.042 30.824C919.298 30.568 919.661 30.44 920.13 30.44H932.034C932.397 30.44 932.674 30.536 932.866 30.728C933.058 30.92 933.154 31.1867 933.154 31.528C933.154 31.8907 933.058 32.168 932.866 32.36C932.674 32.552 932.397 32.648 932.034 32.648H921.25V40.456H931.362C931.725 40.456 932.002 40.552 932.194 40.744C932.386 40.9147 932.482 41.1813 932.482 41.544C932.482 41.9067 932.386 42.184 932.194 42.376C932.002 42.568 931.725 42.664 931.362 42.664H921.25V50.792H932.034C932.397 50.792 932.674 50.888 932.866 51.08C933.058 51.272 933.154 51.5387 933.154 51.88C933.154 52.2427 933.058 52.52 932.866 52.712C932.674 52.904 932.397 53 932.034 53H920.13ZM943.788 53.224C943.383 53.224 943.063 53.1067 942.828 52.872C942.594 52.616 942.476 52.2747 942.476 51.848V32.712H935.276C934.892 32.712 934.594 32.6053 934.38 32.392C934.167 32.1787 934.06 31.9013 934.06 31.56C934.06 31.1973 934.167 30.92 934.38 30.728C934.594 30.536 934.892 30.44 935.276 30.44H952.332C952.716 30.44 953.015 30.536 953.228 30.728C953.442 30.92 953.548 31.1973 953.548 31.56C953.548 31.9227 953.442 32.2107 953.228 32.424C953.015 32.616 952.716 32.712 952.332 32.712H945.132V51.848C945.132 52.2747 945.015 52.616 944.78 52.872C944.567 53.1067 944.236 53.224 943.788 53.224ZM957.502 53.224C957.076 53.224 956.745 53.1067 956.51 52.872C956.297 52.616 956.19 52.2747 956.19 51.848V31.592C956.19 31.144 956.297 30.8027 956.51 30.568C956.745 30.3333 957.076 30.216 957.502 30.216C957.929 30.216 958.249 30.3333 958.462 30.568C958.697 30.8027 958.814 31.144 958.814 31.592V51.848C958.814 52.2747 958.708 52.616 958.494 52.872C958.281 53.1067 957.95 53.224 957.502 53.224ZM965.657 53.224C965.252 53.224 964.942 53.1173 964.729 52.904C964.516 52.6693 964.409 52.3387 964.409 51.912V31.56C964.409 31.1333 964.516 30.8027 964.729 30.568C964.942 30.3333 965.22 30.216 965.561 30.216C965.902 30.216 966.148 30.28 966.297 30.408C966.468 30.5147 966.66 30.7173 966.873 31.016L980.825 49.608H980.057V31.496C980.057 31.0907 980.164 30.7813 980.377 30.568C980.59 30.3333 980.9 30.216 981.305 30.216C981.689 30.216 981.977 30.3333 982.169 30.568C982.382 30.7813 982.489 31.0907 982.489 31.496V51.944C982.489 52.3493 982.393 52.6693 982.201 52.904C982.03 53.1173 981.774 53.224 981.433 53.224C981.113 53.224 980.857 53.16 980.665 53.032C980.473 52.904 980.27 52.7013 980.057 52.424L966.137 33.832H966.873V51.912C966.873 52.3387 966.766 52.6693 966.553 52.904C966.34 53.1173 966.041 53.224 965.657 53.224ZM998.401 53.288C995.99 53.288 993.953 52.8293 992.289 51.912C990.646 50.9947 989.398 49.672 988.545 47.944C987.691 46.216 987.265 44.1467 987.265 41.736C987.265 39.944 987.499 38.3333 987.969 36.904C988.459 35.4747 989.163 34.2693 990.081 33.288C991.019 32.2853 992.15 31.5173 993.473 30.984C994.817 30.4293 996.331 30.152 998.017 30.152C999.361 30.152 1000.66 30.344 1001.92 30.728C1003.18 31.0907 1004.3 31.6773 1005.28 32.488C1005.54 32.68 1005.7 32.8933 1005.76 33.128C1005.82 33.3627 1005.81 33.5973 1005.73 33.832C1005.66 34.0667 1005.55 34.2693 1005.38 34.44C1005.23 34.5893 1005.02 34.6747 1004.77 34.696C1004.53 34.7173 1004.29 34.6427 1004.03 34.472C1003.16 33.7893 1002.23 33.2987 1001.25 33C1000.27 32.68 999.179 32.52 997.985 32.52C996.278 32.52 994.827 32.8827 993.633 33.608C992.459 34.3333 991.563 35.3787 990.945 36.744C990.347 38.1093 990.049 39.7733 990.049 41.736C990.049 44.7227 990.742 47.0053 992.129 48.584C993.537 50.1627 995.649 50.952 998.465 50.952C999.489 50.952 1000.49 50.856 1001.47 50.664C1002.45 50.4507 1003.38 50.1627 1004.26 49.8L1003.68 51.304V43.336H999.105C998.721 43.336 998.433 43.24 998.241 43.048C998.049 42.856 997.953 42.6 997.953 42.28C997.953 41.9387 998.049 41.6827 998.241 41.512C998.433 41.3413 998.721 41.256 999.105 41.256H1004.83C1005.2 41.256 1005.47 41.352 1005.66 41.544C1005.86 41.736 1005.95 42.0133 1005.95 42.376V50.728C1005.95 51.048 1005.9 51.3147 1005.79 51.528C1005.69 51.7413 1005.5 51.9013 1005.25 52.008C1004.35 52.3707 1003.28 52.68 1002.02 52.936C1000.78 53.1707 999.574 53.288 998.401 53.288Z" fill="black"/>
</g>
<path d="M725 39C656 63 654 175 697 224" stroke="#9E9E9E" stroke-width="2" stroke-dasharray="4 4"/>
<path d="M1257 423C1241.33 420.333 1201.4 419.2 1167 436" stroke="#9E9E9E" stroke-width="2" stroke-dasharray="4 4"/>
<path d="M877 946C840.667 931.333 775.2 885.4 804 819" stroke="#9E9E9E" stroke-width="2" stroke-dasharray="4 4"/>
<path d="M458 760C492.667 747 560 698.2 552 607" stroke="#9E9E9E" stroke-width="2" stroke-dasharray="4 4"/>
<path d="M329 487C356 461 436.8 412.8 544 428" stroke="#9E9E9E" stroke-width="2" stroke-dasharray="4 4"/>
<path d="M381 336C423 325.667 523.6 309.2 590 326" stroke="#9E9E9E" stroke-width="2" stroke-dasharray="4 4"/>
<mask id="path-19-inside-1_3473_738" fill="white">
<path d="M853 196C853 187.163 860.169 179.958 868.995 180.401C930.71 183.499 990.326 204.468 1040.5 240.924C1095 280.52 1135.57 336.355 1156.39 400.424C1177.2 464.493 1177.2 533.507 1156.39 597.576C1137.22 656.563 1101.32 708.569 1053.21 747.351C1046.33 752.896 1036.29 751.281 1031.1 744.132L993.657 692.598C988.463 685.449 990.091 675.485 996.85 669.793C1028.67 642.997 1052.45 607.766 1065.37 568.003C1079.94 523.155 1079.94 474.845 1065.37 429.997C1050.8 385.148 1022.4 346.064 984.252 318.346C950.429 293.772 910.477 279.251 868.987 276.273C860.173 275.64 853 268.537 853 259.7L853 196Z"/>
</mask>
<path d="M853 196C853 187.163 860.169 179.958 868.995 180.401C930.71 183.499 990.326 204.468 1040.5 240.924C1095 280.52 1135.57 336.355 1156.39 400.424C1177.2 464.493 1177.2 533.507 1156.39 597.576C1137.22 656.563 1101.32 708.569 1053.21 747.351C1046.33 752.896 1036.29 751.281 1031.1 744.132L993.657 692.598C988.463 685.449 990.091 675.485 996.85 669.793C1028.67 642.997 1052.45 607.766 1065.37 568.003C1079.94 523.155 1079.94 474.845 1065.37 429.997C1050.8 385.148 1022.4 346.064 984.252 318.346C950.429 293.772 910.477 279.251 868.987 276.273C860.173 275.64 853 268.537 853 259.7L853 196Z" fill="#FFB0BE" stroke="white" stroke-width="8" mask="url(#path-19-inside-1_3473_738)"/>
<mask id="path-20-inside-2_3473_738" fill="white">
<path d="M1031.1 744.132C1036.29 751.281 1034.73 761.324 1027.33 766.153C964.146 807.385 888.212 824.984 813.019 815.485C737.826 805.986 668.654 770.056 617.71 714.407C611.744 707.889 612.726 697.772 619.534 692.139L668.616 651.536C675.425 645.903 685.471 646.902 691.576 653.29C726.898 690.247 773.974 714.091 825.013 720.539C876.052 726.987 927.579 715.599 970.982 688.587C978.485 683.918 988.463 685.449 993.657 692.598L1031.1 744.132Z"/>
</mask>
<path d="M1031.1 744.132C1036.29 751.281 1034.73 761.324 1027.33 766.153C964.146 807.385 888.212 824.984 813.019 815.485C737.826 805.986 668.654 770.056 617.71 714.407C611.744 707.889 612.726 697.772 619.534 692.139L668.616 651.536C675.425 645.903 685.471 646.902 691.576 653.29C726.898 690.247 773.974 714.091 825.013 720.539C876.052 726.987 927.579 715.599 970.982 688.587C978.485 683.918 988.463 685.449 993.657 692.598L1031.1 744.132Z" fill="#C6ECFF" stroke="white" stroke-width="8" mask="url(#path-20-inside-2_3473_738)"/>
<mask id="path-21-inside-3_3473_738" fill="white">
<path d="M619.534 692.139C612.726 697.772 602.604 696.841 597.32 689.759C555.385 633.556 533.134 565.076 534.025 494.958C534.138 486.122 541.779 479.42 550.598 479.974L614.172 483.974C622.991 484.529 629.631 492.134 629.708 500.97C630.111 546.773 644.599 591.362 671.195 628.654C676.326 635.848 675.425 645.903 668.616 651.536L619.534 692.139Z"/>
</mask>
<path d="M619.534 692.139C612.726 697.772 602.604 696.841 597.32 689.759C555.385 633.556 533.134 565.076 534.025 494.958C534.138 486.122 541.779 479.42 550.598 479.974L614.172 483.974C622.991 484.529 629.631 492.134 629.708 500.97C630.111 546.773 644.599 591.362 671.195 628.654C676.326 635.848 675.425 645.903 668.616 651.536L619.534 692.139Z" fill="#FFE6EA" stroke="white" stroke-width="8" mask="url(#path-21-inside-3_3473_738)"/>
<mask id="path-22-inside-4_3473_738" fill="white">
<path d="M550.598 479.974C541.779 479.42 535.038 471.813 536.034 463.033C539.356 433.754 546.72 405.076 557.913 377.819C561.27 369.644 570.842 366.226 578.837 369.989L636.475 397.111C644.47 400.873 647.844 410.388 644.664 418.632C638.397 434.879 634.051 451.804 631.716 469.06C630.531 477.817 622.991 484.529 614.172 483.974L550.598 479.974Z"/>
</mask>
<path d="M550.598 479.974C541.779 479.42 535.038 471.813 536.034 463.033C539.356 433.754 546.72 405.076 557.913 377.819C561.27 369.644 570.842 366.226 578.837 369.989L636.475 397.111C644.47 400.873 647.844 410.388 644.664 418.632C638.397 434.879 634.051 451.804 631.716 469.06C630.531 477.817 622.991 484.529 614.172 483.974L550.598 479.974Z" fill="#47C2FF" stroke="white" stroke-width="8" mask="url(#path-22-inside-4_3473_738)"/>
<mask id="path-23-inside-5_3473_738" fill="white">
<path d="M578.837 369.989C570.842 366.226 567.374 356.673 571.533 348.876C582.244 328.793 595.074 309.915 609.803 292.563C615.522 285.826 625.681 285.533 632.122 291.582L678.558 335.188C684.999 341.237 685.268 351.328 679.696 358.186C671.671 368.062 664.506 378.606 658.277 389.702C653.952 397.408 644.47 400.873 636.475 397.111L578.837 369.989Z"/>
</mask>
<path d="M578.837 369.989C570.842 366.226 567.374 356.673 571.533 348.876C582.244 328.793 595.074 309.915 609.803 292.563C615.522 285.826 625.681 285.533 632.122 291.582L678.558 335.188C684.999 341.237 685.268 351.328 679.696 358.186C671.671 368.062 664.506 378.606 658.277 389.702C653.952 397.408 644.47 400.873 636.475 397.111L578.837 369.989Z" fill="#205773" stroke="white" stroke-width="8" mask="url(#path-23-inside-5_3473_738)"/>
<mask id="path-24-inside-6_3473_738" fill="white">
<path d="M632.122 291.582C625.681 285.533 625.335 275.376 631.7 269.245C659.179 242.778 691.216 221.423 726.31 206.236C761.404 191.05 798.902 182.314 837.007 180.401C845.832 179.958 853 187.163 853 196V259.7C853 268.537 845.827 275.64 837.013 276.273C811.991 278.069 787.41 284.072 764.317 294.065C741.223 304.059 720.021 317.868 701.583 334.879C695.088 340.871 684.999 341.237 678.558 335.188L632.122 291.582Z"/>
</mask>
<path d="M632.122 291.582C625.681 285.533 625.335 275.376 631.7 269.245C659.179 242.778 691.216 221.423 726.31 206.236C761.404 191.05 798.902 182.314 837.007 180.401C845.832 179.958 853 187.163 853 196V259.7C853 268.537 845.827 275.64 837.013 276.273C811.991 278.069 787.41 284.072 764.317 294.065C741.223 304.059 720.021 317.868 701.583 334.879C695.088 340.871 684.999 341.237 678.558 335.188L632.122 291.582Z" fill="#40AFE6" stroke="white" stroke-width="8" mask="url(#path-24-inside-6_3473_738)"/>
<defs>
<filter id="filter0_d_3473_738" x="1252" y="374" width="274" height="100" filterUnits="userSpaceOnUse" color-interpolation-filters="sRGB">
<feFlood flood-opacity="0" result="BackgroundImageFix"/>
<feColorMatrix in="SourceAlpha" type="matrix" values="0 0 0 0 0 0 0 0 0 0 0 0 0 0 0 0 0 0 127 0" result="hardAlpha"/>
<feOffset dy="8"/>
<feGaussianBlur stdDeviation="4"/>
<feComposite in2="hardAlpha" operator="out"/>
<feColorMatrix type="matrix" values="0 0 0 0 0 0 0 0 0 0 0 0 0 0 0 0 0 0 0.25 0"/>
<feBlend mode="normal" in2="BackgroundImageFix" result="effect1_dropShadow_3473_738"/>
<feBlend mode="normal" in="SourceGraphic" in2="effect1_dropShadow_3473_738" result="shape"/>
</filter>
<filter id="filter1_d_3473_738" x="870" y="900" width="320" height="100" filterUnits="userSpaceOnUse" color-interpolation-filters="sRGB">
<feFlood flood-opacity="0" result="BackgroundImageFix"/>
<feColorMatrix in="SourceAlpha" type="matrix" values="0 0 0 0 0 0 0 0 0 0 0 0 0 0 0 0 0 0 127 0" result="hardAlpha"/>
<feOffset dy="8"/>
<feGaussianBlur stdDeviation="4"/>
<feComposite in2="hardAlpha" operator="out"/>
<feColorMatrix type="matrix" values="0 0 0 0 0 0 0 0 0 0 0 0 0 0 0 0 0 0 0.25 0"/>
<feBlend mode="normal" in2="BackgroundImageFix" result="effect1_dropShadow_3473_738"/>
<feBlend mode="normal" in="SourceGraphic" in2="effect1_dropShadow_3473_738" result="shape"/>
</filter>
<filter id="filter2_d_3473_738" x="0" y="716" width="464" height="100" filterUnits="userSpaceOnUse" color-interpolation-filters="sRGB">
<feFlood flood-opacity="0" result="BackgroundImageFix"/>
<feColorMatrix in="SourceAlpha" type="matrix" values="0 0 0 0 0 0 0 0 0 0 0 0 0 0 0 0 0 0 127 0" result="hardAlpha"/>
<feOffset dy="8"/>
<feGaussianBlur stdDeviation="4"/>
<feComposite in2="hardAlpha" operator="out"/>
<feColorMatrix type="matrix" values="0 0 0 0 0 0 0 0 0 0 0 0 0 0 0 0 0 0 0.25 0"/>
<feBlend mode="normal" in2="BackgroundImageFix" result="effect1_dropShadow_3473_738"/>
<feBlend mode="normal" in="SourceGraphic" in2="effect1_dropShadow_3473_738" result="shape"/>
</filter>
<filter id="filter3_d_3473_738" x="130" y="446" width="204" height="100" filterUnits="userSpaceOnUse" color-interpolation-filters="sRGB">
<feFlood flood-opacity="0" result="BackgroundImageFix"/>
<feColorMatrix in="SourceAlpha" type="matrix" values="0 0 0 0 0 0 0 0 0 0 0 0 0 0 0 0 0 0 127 0" result="hardAlpha"/>
<feOffset dy="8"/>
<feGaussianBlur stdDeviation="4"/>
<feComposite in2="hardAlpha" operator="out"/>
<feColorMatrix type="matrix" values="0 0 0 0 0 0 0 0 0 0 0 0 0 0 0 0 0 0 0.25 0"/>
<feBlend mode="normal" in2="BackgroundImageFix" result="effect1_dropShadow_3473_738"/>
<feBlend mode="normal" in="SourceGraphic" in2="effect1_dropShadow_3473_738" result="shape"/>
</filter>
<filter id="filter4_d_3473_738" x="110" y="290" width="276" height="100" filterUnits="userSpaceOnUse" color-interpolation-filters="sRGB">
<feFlood flood-opacity="0" result="BackgroundImageFix"/>
<feColorMatrix in="SourceAlpha" type="matrix" values="0 0 0 0 0 0 0 0 0 0 0 0 0 0 0 0 0 0 127 0" result="hardAlpha"/>
<feOffset dy="8"/>
<feGaussianBlur stdDeviation="4"/>
<feComposite in2="hardAlpha" operator="out"/>
<feColorMatrix type="matrix" values="0 0 0 0 0 0 0 0 0 0 0 0 0 0 0 0 0 0 0.25 0"/>
<feBlend mode="normal" in2="BackgroundImageFix" result="effect1_dropShadow_3473_738"/>
<feBlend mode="normal" in="SourceGraphic" in2="effect1_dropShadow_3473_738" result="shape"/>
</filter>
<filter id="filter5_d_3473_738" x="718" y="0" width="320" height="100" filterUnits="userSpaceOnUse" color-interpolation-filters="sRGB">
<feFlood flood-opacity="0" result="BackgroundImageFix"/>
<feColorMatrix in="SourceAlpha" type="matrix" values="0 0 0 0 0 0 0 0 0 0 0 0 0 0 0 0 0 0 127 0" result="hardAlpha"/>
<feOffset dy="8"/>
<feGaussianBlur stdDeviation="4"/>
<feComposite in2="hardAlpha" operator="out"/>
<feColorMatrix type="matrix" values="0 0 0 0 0 0 0 0 0 0 0 0 0 0 0 0 0 0 0.25 0"/>
<feBlend mode="normal" in2="BackgroundImageFix" result="effect1_dropShadow_3473_738"/>
<feBlend mode="normal" in="SourceGraphic" in2="effect1_dropShadow_3473_738" result="shape"/>
</filter>
</defs>
</svg>
